<svg width="272" height="205" viewBox="0 0 272 205" fill="none" xmlns="http://www.w3.org/2000/svg">
<path d="M132.863 106.717V103.528V95.0888C132.863 94.1925 132.137 93.466 131.241 93.466H97.6227C96.7265 93.466 95.9999 94.1925 95.9999 95.0888V100.092" stroke="#A6A9AD" stroke-width="0.973707" stroke-linecap="round"/>
<path d="M114.982 97.0548H99.301" stroke="#CECFD2" stroke-width="1.62285" stroke-linecap="round"/>
<path d="M121.458 100.368L101.65 100.368" stroke="#CECFD2" stroke-width="1.62285" stroke-linecap="round"/>
<path d="M124.611 103.681L108.766 103.681" stroke="#CECFD2" stroke-width="1.62285" stroke-linecap="round"/>
<rect x="124.06" y="95.3985" width="5.77713" height="5.79748" rx="1.62285" fill="#D9D9D9"/>
<path d="M164.225 55.6257V60.6285C164.225 61.5248 163.499 62.2514 162.602 62.2514H128.984C128.088 62.2514 127.362 61.5248 127.362 60.6285V50.6228C127.362 49.7266 128.088 49 128.984 49H131.73" stroke="#A6A9AD" stroke-width="0.973707" stroke-linecap="round"/>
<path d="M160.192 52.5888H134.479" stroke="#CECFD2" stroke-width="1.62285" stroke-linecap="round"/>
<path d="M160.192 55.9017L146.446 55.9017" stroke="#CECFD2" stroke-width="1.62285" stroke-linecap="round"/>
<path d="M160.192 59.2146L151.783 59.2146" stroke="#CECFD2" stroke-width="1.62285" stroke-linecap="round"/>
<rect width="8.10001" height="3.888" transform="matrix(0.705863 0.708348 -0.705863 0.708348 150.569 91.347)" fill="#A6A9AD"/>
<rect width="2.268" height="3.888" transform="matrix(0.705863 0.708348 -0.705863 0.708348 150.569 91.347)" fill="#74767C"/>
<path d="M154.228 94.5609C154.481 94.307 154.891 94.307 155.144 94.5609L174.122 113.606C175.135 114.622 175.135 116.269 174.122 117.284L173.671 117.737C172.659 118.753 171.018 118.753 170.006 117.737L151.028 98.692C150.775 98.438 150.775 98.0263 151.028 97.7724L154.228 94.5609Z" fill="#74767C"/>
<path d="M153.999 96.1675C154.252 95.9136 154.662 95.9136 154.916 96.1675L173.325 114.642C173.641 114.959 173.641 115.472 173.325 115.789C173.009 116.106 172.497 116.106 172.182 115.789L153.772 97.315C153.519 97.0611 153.519 96.6493 153.772 96.3954L153.999 96.1675Z" fill="white"/>
<path d="M119.352 62.544C127.878 53.9882 141.701 53.9882 150.227 62.544C158.753 71.0997 158.753 84.9716 150.227 93.5274C141.701 102.083 127.878 102.083 119.352 93.5274C117.233 91.4007 115.641 88.9455 114.575 86.3252H119.214C120.016 87.8418 121.053 89.2666 122.326 90.544C129.21 97.4515 140.37 97.4516 147.254 90.544C154.137 83.636 154.137 72.4353 147.254 65.5274C140.37 58.6197 129.21 58.6198 122.326 65.5274C120.777 67.0819 119.577 68.8547 118.725 70.7461H114.198C115.248 67.7512 116.966 64.939 119.352 62.544Z" fill="#A6A9AD"/>
<path d="M122.835 70.7461H106.831C105.935 70.7461 105.208 71.4727 105.208 72.369V84.7026C105.208 85.5989 105.935 86.3254 106.831 86.3254H126.231M131.729 70.7461H146.925C147.821 70.7461 148.548 71.4727 148.548 72.369V84.7026C148.548 85.5989 147.821 86.3254 146.925 86.3254H143.373" stroke="#A6A9AD" stroke-width="0.973707" stroke-linecap="round"/>
<path d="M138.845 73.9919L142.403 77.5621M142.403 73.9919L138.845 77.5621" stroke="#BD1313" stroke-width="1.62285" stroke-linecap="round"/>
<path d="M127.525 74.9655H109.089" stroke="#CECFD2" stroke-width="1.62285" stroke-linecap="round"/>
<path d="M132.376 78.8604L109.089 78.8604" stroke="#CECFD2" stroke-width="1.62285" stroke-linecap="round"/>
<path d="M138.845 82.7552L109.09 82.7552" stroke="#CECFD2" stroke-width="1.62285" stroke-linecap="round"/>
<path d="M108.08 148.352C108.166 148.352 108.246 148.369 108.32 148.404C108.395 148.436 108.459 148.479 108.514 148.533C108.568 148.588 108.611 148.652 108.643 148.727C108.678 148.801 108.695 148.881 108.695 148.967C108.695 149.053 108.678 149.133 108.643 149.207C108.611 149.281 108.568 149.346 108.514 149.4C108.459 149.455 108.395 149.498 108.32 149.529C108.246 149.561 108.166 149.576 108.08 149.576H106.58C106.494 149.576 106.414 149.561 106.34 149.529C106.266 149.498 106.199 149.455 106.141 149.4C106.086 149.346 106.043 149.281 106.012 149.207C105.98 149.133 105.965 149.053 105.965 148.967V138.127C105.965 137.99 105.979 137.85 106.006 137.705C106.037 137.557 106.08 137.416 106.135 137.283C106.189 137.147 106.256 137.022 106.334 136.908C106.416 136.791 106.508 136.693 106.609 136.615H104.225C104.135 136.615 104.053 136.6 103.979 136.568C103.9 136.533 103.832 136.488 103.773 136.434C103.715 136.375 103.67 136.309 103.639 136.234C103.604 136.156 103.586 136.072 103.586 135.982C103.586 135.897 103.604 135.814 103.639 135.736C103.67 135.658 103.715 135.59 103.773 135.531C103.832 135.473 103.9 135.428 103.979 135.397C104.053 135.361 104.135 135.344 104.225 135.344H108.262C108.359 135.344 108.449 135.363 108.531 135.402C108.617 135.438 108.691 135.486 108.754 135.549C108.816 135.611 108.865 135.686 108.9 135.772C108.939 135.857 108.959 135.947 108.959 136.041C108.959 136.189 108.916 136.324 108.83 136.445C108.744 136.563 108.635 136.647 108.502 136.697C108.365 136.744 108.238 136.811 108.121 136.897C108.004 136.979 107.902 137.082 107.816 137.207C107.73 137.328 107.664 137.471 107.617 137.635C107.57 137.795 107.547 137.975 107.547 138.174V148.352H108.08ZM110.189 140.412C110.189 140.291 110.211 140.182 110.254 140.084C110.297 139.986 110.354 139.904 110.424 139.838C110.498 139.768 110.584 139.715 110.682 139.68C110.779 139.641 110.883 139.621 110.992 139.621C111.102 139.621 111.205 139.641 111.303 139.68C111.4 139.715 111.484 139.766 111.555 139.832C111.629 139.898 111.688 139.982 111.73 140.084C111.773 140.182 111.795 140.291 111.795 140.412V145.281C111.795 145.727 111.863 146.139 112 146.518C112.137 146.893 112.336 147.219 112.598 147.496C112.863 147.77 113.188 147.984 113.57 148.141C113.953 148.297 114.391 148.375 114.883 148.375C115.211 148.375 115.49 148.328 115.721 148.234C115.955 148.137 116.146 148.002 116.295 147.83C116.443 147.654 116.551 147.445 116.617 147.203C116.688 146.957 116.723 146.684 116.723 146.383V140.412C116.723 140.291 116.744 140.182 116.787 140.084C116.83 139.986 116.887 139.904 116.957 139.838C117.031 139.768 117.117 139.715 117.215 139.68C117.312 139.641 117.416 139.621 117.525 139.621C117.635 139.621 117.738 139.641 117.836 139.68C117.934 139.715 118.018 139.766 118.088 139.832C118.162 139.898 118.221 139.982 118.264 140.084C118.307 140.182 118.328 140.291 118.328 140.412V146.189C118.328 146.725 118.275 147.215 118.17 147.66C118.064 148.105 117.883 148.488 117.625 148.809C117.367 149.125 117.021 149.373 116.588 149.553C116.158 149.729 115.617 149.816 114.965 149.816C114.215 149.816 113.572 149.668 113.037 149.371C112.502 149.07 112.072 148.611 111.748 147.994V148.914C111.748 149.027 111.727 149.133 111.684 149.23C111.645 149.324 111.59 149.406 111.52 149.477C111.449 149.543 111.365 149.596 111.268 149.635C111.174 149.674 111.074 149.693 110.969 149.693C110.863 149.693 110.762 149.674 110.664 149.635C110.57 149.6 110.488 149.549 110.418 149.482C110.348 149.412 110.291 149.33 110.248 149.236C110.209 149.139 110.189 149.031 110.189 148.914V140.412ZM118.328 137.453C118.328 137.57 118.309 137.676 118.27 137.77C118.227 137.863 118.172 137.943 118.105 138.01C118.035 138.076 117.953 138.129 117.859 138.168C117.766 138.203 117.666 138.221 117.561 138.221C117.455 138.221 117.355 138.203 117.262 138.168C117.168 138.129 117.088 138.076 117.021 138.01C116.951 137.943 116.896 137.863 116.857 137.77C116.814 137.676 116.793 137.57 116.793 137.453V135.613C116.793 135.496 116.814 135.391 116.857 135.297C116.896 135.203 116.951 135.123 117.021 135.057C117.088 134.99 117.168 134.939 117.262 134.904C117.355 134.865 117.455 134.846 117.561 134.846C117.666 134.846 117.766 134.865 117.859 134.904C117.953 134.939 118.035 134.99 118.105 135.057C118.172 135.123 118.227 135.203 118.27 135.297C118.309 135.391 118.328 135.496 118.328 135.613V137.453ZM120.268 140.412C120.268 140.291 120.289 140.182 120.332 140.084C120.375 139.986 120.432 139.904 120.502 139.838C120.576 139.768 120.662 139.715 120.76 139.68C120.857 139.641 120.961 139.621 121.07 139.621C121.18 139.621 121.283 139.641 121.381 139.68C121.479 139.715 121.562 139.766 121.633 139.832C121.707 139.898 121.766 139.982 121.809 140.084C121.852 140.182 121.873 140.291 121.873 140.412V145.281C121.873 145.727 121.941 146.139 122.078 146.518C122.215 146.893 122.414 147.219 122.676 147.496C122.941 147.77 123.266 147.984 123.648 148.141C124.031 148.297 124.469 148.375 124.961 148.375C125.289 148.375 125.568 148.328 125.799 148.234C126.033 148.137 126.225 148.002 126.373 147.83C126.521 147.654 126.629 147.445 126.695 147.203C126.766 146.957 126.801 146.684 126.801 146.383V140.412C126.801 140.291 126.822 140.182 126.865 140.084C126.908 139.986 126.965 139.904 127.035 139.838C127.109 139.768 127.195 139.715 127.293 139.68C127.391 139.641 127.494 139.621 127.604 139.621C127.713 139.621 127.816 139.641 127.914 139.68C128.012 139.715 128.096 139.766 128.166 139.832C128.24 139.898 128.299 139.982 128.342 140.084C128.385 140.182 128.406 140.291 128.406 140.412V146.189C128.406 146.725 128.354 147.215 128.248 147.66C128.143 148.105 127.961 148.488 127.703 148.809C127.445 149.125 127.1 149.373 126.666 149.553C126.236 149.729 125.695 149.816 125.043 149.816C124.293 149.816 123.65 149.668 123.115 149.371C122.58 149.07 122.15 148.611 121.826 147.994V148.914C121.826 149.027 121.805 149.133 121.762 149.23C121.723 149.324 121.668 149.406 121.598 149.477C121.527 149.543 121.443 149.596 121.346 149.635C121.252 149.674 121.152 149.693 121.047 149.693C120.941 149.693 120.84 149.674 120.742 149.635C120.648 149.6 120.566 149.549 120.496 149.482C120.426 149.412 120.369 149.33 120.326 149.236C120.287 149.139 120.268 149.031 120.268 148.914V140.412ZM120.76 138.08C120.584 138.08 120.436 138.023 120.314 137.91C120.193 137.793 120.133 137.647 120.133 137.471C120.133 137.385 120.15 137.305 120.186 137.23C120.217 137.156 120.262 137.092 120.32 137.037C120.375 136.979 120.441 136.934 120.52 136.902C120.594 136.871 120.674 136.855 120.76 136.855H126.871V135.994C126.871 135.889 126.893 135.789 126.936 135.695C126.975 135.602 127.029 135.522 127.1 135.455C127.166 135.385 127.246 135.33 127.34 135.291C127.434 135.248 127.533 135.227 127.639 135.227C127.744 135.227 127.844 135.248 127.938 135.291C128.031 135.33 128.113 135.385 128.184 135.455C128.25 135.522 128.305 135.602 128.348 135.695C128.387 135.789 128.406 135.889 128.406 135.994V137.471C128.406 137.647 128.346 137.793 128.225 137.91C128.104 138.023 127.955 138.08 127.779 138.08H120.76ZM134.025 148.059L135.713 140.272C135.768 140.025 135.879 139.848 136.047 139.738C136.219 139.629 136.414 139.594 136.633 139.633C136.738 139.652 136.836 139.689 136.926 139.744C137.02 139.795 137.096 139.861 137.154 139.943C137.213 140.022 137.254 140.113 137.277 140.219C137.301 140.32 137.299 140.43 137.271 140.547L135.414 148.609C135.379 148.77 135.316 148.916 135.227 149.049C135.141 149.182 135.035 149.297 134.91 149.395C134.785 149.492 134.645 149.566 134.488 149.617C134.332 149.672 134.17 149.699 134.002 149.699C133.834 149.699 133.674 149.672 133.521 149.617C133.369 149.563 133.23 149.486 133.105 149.389C132.984 149.287 132.879 149.17 132.789 149.037C132.703 148.904 132.643 148.758 132.607 148.598L130.832 140.934H130.064C129.982 140.934 129.904 140.918 129.83 140.887C129.76 140.855 129.697 140.813 129.643 140.758C129.588 140.703 129.545 140.641 129.514 140.57C129.482 140.496 129.467 140.418 129.467 140.336C129.467 140.254 129.482 140.178 129.514 140.107C129.545 140.033 129.588 139.969 129.643 139.914C129.697 139.859 129.76 139.816 129.83 139.785C129.904 139.754 129.982 139.738 130.064 139.738H131.752C131.916 139.738 132.047 139.797 132.145 139.914C132.246 140.031 132.314 140.172 132.35 140.336L134.025 148.059ZM136.076 135.754C136.111 135.664 136.162 135.586 136.229 135.52C136.291 135.449 136.363 135.397 136.445 135.361C136.527 135.322 136.615 135.301 136.709 135.297C136.799 135.293 136.891 135.309 136.984 135.344C137.074 135.379 137.152 135.428 137.219 135.49C137.281 135.553 137.33 135.625 137.365 135.707C137.4 135.785 137.42 135.871 137.424 135.965C137.428 136.055 137.412 136.147 137.377 136.24C137.275 136.494 137.125 136.732 136.926 136.955C136.727 137.174 136.477 137.365 136.176 137.529C135.875 137.693 135.525 137.822 135.127 137.916C134.725 138.01 134.271 138.057 133.768 138.057H133.064C132.982 138.057 132.906 138.043 132.836 138.016C132.766 137.984 132.703 137.943 132.648 137.893C132.594 137.838 132.551 137.775 132.52 137.705C132.488 137.631 132.473 137.553 132.473 137.471V136.592H132.104C132.021 136.592 131.945 136.578 131.875 136.551C131.805 136.52 131.742 136.479 131.688 136.428C131.633 136.373 131.59 136.311 131.559 136.24C131.527 136.166 131.512 136.088 131.512 136.006C131.512 135.924 131.527 135.848 131.559 135.777C131.59 135.703 131.633 135.641 131.688 135.59C131.742 135.535 131.805 135.492 131.875 135.461C131.945 135.43 132.021 135.414 132.104 135.414H133.223C133.305 135.414 133.381 135.43 133.451 135.461C133.521 135.492 133.584 135.535 133.639 135.59C133.693 135.641 133.736 135.703 133.768 135.777C133.799 135.848 133.814 135.924 133.814 136.006V136.879C134.424 136.879 134.916 136.783 135.291 136.592C135.666 136.397 135.928 136.117 136.076 135.754ZM138.496 144.742C138.496 144.656 138.512 144.576 138.543 144.502C138.574 144.428 138.617 144.363 138.672 144.309C138.73 144.254 138.797 144.211 138.871 144.18C138.945 144.145 139.025 144.127 139.111 144.127H142.246C142.332 144.127 142.412 144.145 142.486 144.18C142.561 144.211 142.625 144.254 142.68 144.309C142.734 144.363 142.777 144.428 142.809 144.502C142.844 144.576 142.861 144.656 142.861 144.742C142.861 144.828 142.844 144.908 142.809 144.982C142.777 145.057 142.734 145.121 142.68 145.176C142.625 145.23 142.561 145.273 142.486 145.305C142.412 145.336 142.332 145.352 142.246 145.352H140.154C140.154 145.813 140.217 146.234 140.342 146.617C140.467 146.996 140.643 147.322 140.869 147.596C141.1 147.865 141.373 148.074 141.689 148.223C142.01 148.371 142.361 148.445 142.744 148.445C143.154 148.445 143.521 148.361 143.846 148.193C144.174 148.025 144.451 147.781 144.678 147.461C144.908 147.141 145.084 146.748 145.205 146.283C145.326 145.814 145.387 145.279 145.387 144.678C145.387 144.068 145.33 143.527 145.217 143.055C145.107 142.582 144.941 142.186 144.719 141.865C144.496 141.545 144.219 141.303 143.887 141.139C143.555 140.971 143.166 140.887 142.721 140.887C142.432 140.887 142.16 140.92 141.906 140.986C141.652 141.053 141.42 141.148 141.209 141.273C141.002 141.395 140.822 141.545 140.67 141.725C140.521 141.9 140.406 142.098 140.324 142.316C140.238 142.551 140.105 142.721 139.926 142.826C139.746 142.928 139.539 142.949 139.305 142.891C139.188 142.863 139.086 142.816 139 142.75C138.918 142.68 138.854 142.6 138.807 142.51C138.76 142.42 138.732 142.322 138.725 142.217C138.721 142.107 138.74 142 138.783 141.895C138.928 141.527 139.117 141.197 139.352 140.904C139.59 140.607 139.871 140.355 140.195 140.148C140.523 139.938 140.896 139.777 141.314 139.668C141.736 139.555 142.205 139.498 142.721 139.498C143.506 139.498 144.172 139.631 144.719 139.897C145.266 140.162 145.709 140.527 146.049 140.992C146.393 141.457 146.641 142.006 146.793 142.639C146.945 143.268 147.021 143.947 147.021 144.678C147.021 145.135 146.986 145.578 146.916 146.008C146.85 146.438 146.744 146.842 146.6 147.221C146.455 147.6 146.27 147.947 146.043 148.264C145.816 148.576 145.545 148.848 145.229 149.078C144.912 149.305 144.547 149.48 144.133 149.605C143.723 149.73 143.26 149.793 142.744 149.793C142.225 149.793 141.758 149.73 141.344 149.605C140.934 149.48 140.57 149.305 140.254 149.078C139.941 148.852 139.674 148.582 139.451 148.27C139.229 147.957 139.047 147.613 138.906 147.238C138.766 146.863 138.662 146.465 138.596 146.043C138.529 145.621 138.496 145.188 138.496 144.742ZM148.557 140.412C148.557 140.291 148.578 140.182 148.621 140.084C148.664 139.986 148.721 139.904 148.791 139.838C148.865 139.768 148.951 139.715 149.049 139.68C149.146 139.641 149.25 139.621 149.359 139.621C149.469 139.621 149.572 139.641 149.67 139.68C149.768 139.715 149.852 139.766 149.922 139.832C149.996 139.898 150.055 139.982 150.098 140.084C150.141 140.182 150.162 140.291 150.162 140.412V145.281C150.162 145.727 150.23 146.139 150.367 146.518C150.504 146.893 150.703 147.219 150.965 147.496C151.23 147.77 151.555 147.984 151.938 148.141C152.32 148.297 152.758 148.375 153.25 148.375C153.578 148.375 153.857 148.328 154.088 148.234C154.322 148.137 154.514 148.002 154.662 147.83C154.811 147.654 154.918 147.445 154.984 147.203C155.055 146.957 155.09 146.684 155.09 146.383V140.412C155.09 140.291 155.111 140.182 155.154 140.084C155.197 139.986 155.254 139.904 155.324 139.838C155.398 139.768 155.484 139.715 155.582 139.68C155.68 139.641 155.783 139.621 155.893 139.621C156.002 139.621 156.105 139.641 156.203 139.68C156.301 139.715 156.385 139.766 156.455 139.832C156.529 139.898 156.588 139.982 156.631 140.084C156.674 140.182 156.695 140.291 156.695 140.412V146.189C156.695 146.725 156.643 147.215 156.537 147.66C156.432 148.105 156.25 148.488 155.992 148.809C155.734 149.125 155.389 149.373 154.955 149.553C154.525 149.729 153.984 149.816 153.332 149.816C152.582 149.816 151.939 149.668 151.404 149.371C150.869 149.07 150.439 148.611 150.115 147.994V148.914C150.115 149.027 150.094 149.133 150.051 149.23C150.012 149.324 149.957 149.406 149.887 149.477C149.816 149.543 149.732 149.596 149.635 149.635C149.541 149.674 149.441 149.693 149.336 149.693C149.23 149.693 149.129 149.674 149.031 149.635C148.938 149.6 148.855 149.549 148.785 149.482C148.715 149.412 148.658 149.33 148.615 149.236C148.576 149.139 148.557 149.031 148.557 148.914V140.412ZM155.184 151.51C155.184 151.404 155.203 151.305 155.242 151.211C155.281 151.121 155.336 151.041 155.406 150.971C155.473 150.904 155.553 150.852 155.646 150.813C155.736 150.773 155.834 150.754 155.939 150.754C156.045 150.754 156.145 150.773 156.238 150.813C156.328 150.852 156.408 150.904 156.479 150.971C156.545 151.041 156.598 151.121 156.637 151.211C156.676 151.305 156.695 151.404 156.695 151.51V152.049C156.695 152.365 156.652 152.664 156.566 152.945C156.48 153.23 156.34 153.479 156.145 153.689C155.945 153.9 155.688 154.066 155.371 154.188C155.051 154.313 154.66 154.375 154.199 154.375C153.742 154.375 153.355 154.318 153.039 154.205C152.719 154.096 152.459 153.938 152.26 153.73C152.057 153.527 151.91 153.283 151.82 152.998C151.727 152.713 151.68 152.397 151.68 152.049H151.234C151.152 152.049 151.076 152.033 151.006 152.002C150.936 151.971 150.873 151.928 150.818 151.873C150.764 151.818 150.721 151.756 150.689 151.686C150.658 151.615 150.643 151.539 150.643 151.457C150.643 151.375 150.658 151.299 150.689 151.229C150.721 151.158 150.764 151.096 150.818 151.041C150.873 150.99 150.936 150.949 151.006 150.918C151.076 150.887 151.152 150.871 151.234 150.871H152.623C152.705 150.871 152.781 150.887 152.852 150.918C152.922 150.949 152.984 150.99 153.039 151.041C153.094 151.096 153.137 151.158 153.168 151.229C153.199 151.299 153.215 151.375 153.215 151.457V152.049C153.215 152.424 153.295 152.705 153.455 152.893C153.611 153.08 153.859 153.174 154.199 153.174C154.855 153.174 155.184 152.799 155.184 152.049V151.51ZM164.945 144.971C164.855 144.951 164.693 144.936 164.459 144.924C164.229 144.912 163.955 144.912 163.639 144.924C163.389 144.936 163.123 144.955 162.842 144.982C162.564 145.01 162.289 145.055 162.016 145.117C161.746 145.176 161.486 145.254 161.236 145.352C160.986 145.445 160.766 145.566 160.574 145.715C160.387 145.859 160.236 146.033 160.123 146.236C160.014 146.436 159.959 146.668 159.959 146.934C159.959 147.238 160.018 147.49 160.135 147.689C160.252 147.889 160.404 148.047 160.592 148.164C160.783 148.281 160.996 148.363 161.23 148.41C161.469 148.453 161.709 148.475 161.951 148.475C162.072 148.475 162.186 148.469 162.291 148.457C162.459 148.434 162.607 148.473 162.736 148.574C162.869 148.672 162.945 148.814 162.965 149.002C162.973 149.092 162.965 149.176 162.941 149.254C162.918 149.332 162.883 149.402 162.836 149.465C162.789 149.527 162.732 149.58 162.666 149.623C162.6 149.666 162.525 149.695 162.443 149.711C162.303 149.738 162.162 149.758 162.021 149.77C161.885 149.785 161.734 149.793 161.57 149.793C161.133 149.793 160.717 149.744 160.322 149.647C159.932 149.549 159.588 149.391 159.291 149.172C158.998 148.953 158.764 148.672 158.588 148.328C158.416 147.98 158.33 147.557 158.33 147.057C158.33 146.568 158.41 146.145 158.57 145.785C158.734 145.422 158.953 145.113 159.227 144.859C159.5 144.602 159.816 144.393 160.176 144.232C160.539 144.068 160.918 143.941 161.312 143.852C161.711 143.758 162.115 143.693 162.525 143.658C162.936 143.623 163.326 143.604 163.697 143.6C163.936 143.6 164.158 143.604 164.365 143.611C164.576 143.619 164.77 143.627 164.945 143.635V142.744C164.945 142.354 164.881 142.037 164.752 141.795C164.623 141.553 164.453 141.365 164.242 141.232C164.035 141.096 163.801 141.004 163.539 140.957C163.281 140.91 163.023 140.887 162.766 140.887C162.465 140.887 162.186 140.91 161.928 140.957C161.67 141.004 161.439 141.084 161.236 141.197C161.033 141.307 160.861 141.451 160.721 141.631C160.58 141.811 160.479 142.035 160.416 142.305C160.393 142.395 160.355 142.479 160.305 142.557C160.258 142.631 160.199 142.695 160.129 142.75C160.059 142.805 159.98 142.848 159.895 142.879C159.809 142.91 159.717 142.926 159.619 142.926C159.506 142.926 159.398 142.904 159.297 142.861C159.199 142.818 159.113 142.762 159.039 142.691C158.969 142.617 158.912 142.531 158.869 142.434C158.826 142.332 158.805 142.225 158.805 142.111C158.805 142.033 158.812 141.965 158.828 141.906C158.945 141.469 159.133 141.1 159.391 140.799C159.648 140.498 159.957 140.256 160.316 140.072C160.676 139.885 161.074 139.75 161.512 139.668C161.953 139.586 162.412 139.545 162.889 139.545C163.154 139.545 163.428 139.563 163.709 139.598C163.994 139.633 164.271 139.695 164.541 139.785C164.814 139.871 165.07 139.99 165.309 140.143C165.551 140.295 165.762 140.488 165.941 140.723C166.125 140.957 166.27 141.236 166.375 141.561C166.48 141.885 166.533 142.264 166.533 142.697V148.908C166.533 149.029 166.512 149.139 166.469 149.236C166.43 149.334 166.373 149.416 166.299 149.482C166.229 149.549 166.145 149.6 166.047 149.635C165.949 149.674 165.846 149.693 165.736 149.693C165.627 149.693 165.523 149.676 165.426 149.641C165.332 149.605 165.248 149.555 165.174 149.488C165.104 149.418 165.047 149.336 165.004 149.242C164.965 149.145 164.945 149.033 164.945 148.908V144.971Z" fill="#6B7280"/>
</svg>
