<svg width="21" height="15" viewBox="0 0 21 15" fill="none" xmlns="http://www.w3.org/2000/svg">
<rect width="21" height="15" rx="3" fill="#F93939"/>
<path fill-rule="evenodd" clip-rule="evenodd" d="M10.155 7.5141C7.44296 6.3661 8.64496 2.8301 11.24 3.0061C10.714 3.2761 10.638 3.7801 10.938 4.2461C11.274 4.7701 10.908 5.6111 10.454 5.8161C9.70796 6.1511 9.55896 7.0461 10.154 7.5141H10.155ZM10.382 7.3921C10.635 4.4591 14.372 4.5091 15.002 7.0301C14.584 6.6151 14.082 6.6981 13.73 7.1281C13.337 7.6081 12.424 7.5181 12.09 7.1511C11.54 6.5471 10.64 6.6811 10.382 7.3931V7.3921ZM10.474 7.6851C13.354 7.0701 14.398 10.6571 12.171 11.9991C12.447 11.4761 12.221 11.0191 11.707 10.8091C11.133 10.5731 10.951 9.6741 11.205 9.2471C11.623 8.5441 11.231 7.7241 10.475 7.6841L10.474 7.6851ZM6.74996 10.9801C7.32996 11.0801 7.69496 10.7231 7.73596 10.1701C7.78296 9.5501 8.58096 9.1001 9.06596 9.2101C9.86396 9.3901 10.523 8.7641 10.326 8.0321C11.802 10.5821 8.71296 12.6821 6.74896 10.9791L6.74996 10.9801ZM6.15296 5.5001C6.26796 6.0781 6.73096 6.2901 7.26296 6.1301C7.85796 5.9521 8.56496 6.5361 8.63596 7.0301C8.75396 7.8381 9.57396 8.2281 10.186 7.7841C8.33596 10.0741 5.26596 7.9441 6.15296 5.4991V5.5001Z" fill="white"/>
</svg>
