<svg width="24" height="24" viewBox="0 0 24 24" fill="none" xmlns="http://www.w3.org/2000/svg">
<path d="M10.0988 3.13558L9.36909 3.30894L10.0988 3.13558ZM12.7563 8.39604L12.583 7.66633L12.7563 8.39604ZM7.49549 11.2437L6.76581 11.0703L7.49549 11.2437ZM12.7563 5.79269L12.583 6.5224L12.7563 5.79269ZM4.64814 5.7927L4.82145 5.063L4.64814 5.7927ZM4.64814 8.39603L4.47484 7.66633L4.64814 8.39603ZM10.0988 11.2437L9.36908 11.4171L10.0988 11.2437ZM7.49549 3.13558L8.22518 3.30894L7.49549 3.13558ZM8.79713 5.53382C9.95021 5.53382 10.885 4.59906 10.885 3.44598H9.38497C9.38497 3.77063 9.12178 4.03382 8.79713 4.03382V5.53382ZM6.70929 3.44598C6.70929 4.59906 7.64405 5.53382 8.79713 5.53382V4.03382C8.47248 4.03382 8.20929 3.77063 8.20929 3.44598H6.70929ZM6.7658 2.96223C6.72874 3.11822 6.70929 3.28032 6.70929 3.44598H8.20929C8.20929 3.39793 8.2149 3.35217 8.22518 3.30894L6.7658 2.96223ZM4.88372 3.75H7.39402V2.25H4.88372V3.75ZM5.53372 5.69123V3.1H4.03372V5.69123H5.53372ZM4.33784 6.50653C4.38587 6.50653 4.43161 6.51214 4.47484 6.5224L4.82145 5.063C4.6655 5.02596 4.50345 5.00653 4.33784 5.00653V6.50653ZM3.75 7.09437C3.75 6.76971 4.01318 6.50653 4.33784 6.50653V5.00653C3.18476 5.00653 2.25 5.94128 2.25 7.09437H3.75ZM4.33784 7.6822C4.01318 7.6822 3.75 7.41902 3.75 7.09437H2.25C2.25 8.24745 3.18476 9.1822 4.33784 9.1822V7.6822ZM4.47484 7.66633C4.43162 7.6766 4.38587 7.6822 4.33784 7.6822V9.1822C4.50345 9.1822 4.6655 9.16277 4.82145 9.12573L4.47484 7.66633ZM5.53372 11.0081V8.4975H4.03372V11.0081H5.53372ZM7.39403 10.3581H4.88372V11.8581H7.39403V10.3581ZM8.20929 11.5541C8.20929 11.5061 8.21491 11.4603 8.22518 11.4171L6.76581 11.0703C6.72874 11.2263 6.70929 11.3884 6.70929 11.5541H8.20929ZM8.79713 12.142C8.47248 12.142 8.20929 11.8788 8.20929 11.5541H6.70929C6.70929 12.7072 7.64405 13.642 8.79713 13.642V12.142ZM9.38497 11.5541C9.38497 11.8788 9.12179 12.142 8.79713 12.142V13.642C9.95021 13.642 10.885 12.7072 10.885 11.5541H9.38497ZM9.36908 11.4171C9.37936 11.4603 9.38497 11.5061 9.38497 11.5541H10.885C10.885 11.3884 10.8655 11.2263 10.8285 11.0703L9.36908 11.4171ZM12.7918 10.3581H10.2002V11.8581H12.7918V10.3581ZM12.1418 8.49751V11.0081H13.6418V8.49751H12.1418ZM12.583 7.66633C12.5397 7.6766 12.494 7.6822 12.446 7.6822V9.1822C12.6116 9.1822 12.7736 9.16278 12.9295 9.12575L12.583 7.66633ZM12.446 7.6822C12.1213 7.6822 11.8581 7.41902 11.8581 7.09437H10.3581C10.3581 8.24745 11.2929 9.1822 12.446 9.1822V7.6822ZM11.8581 7.09437C11.8581 6.76971 12.1213 6.50653 12.446 6.50653V5.00653C11.2929 5.00653 10.3581 5.94128 10.3581 7.09437H11.8581ZM12.446 6.50653C12.494 6.50653 12.5397 6.51213 12.583 6.5224L12.9295 5.06299C12.7736 5.02595 12.6116 5.00653 12.446 5.00653V6.50653ZM12.1418 3.1V5.69122H13.6418V3.1H12.1418ZM10.2002 3.75H12.7918V2.25H10.2002V3.75ZM10.885 3.44598C10.885 3.28032 10.8655 3.11822 10.8285 2.96223L9.36909 3.30894C9.37936 3.35217 9.38497 3.39793 9.38497 3.44598H10.885ZM10.2002 2.25C9.59095 2.25 9.25449 2.8266 9.36909 3.30894L10.8285 2.96223C10.9112 3.31028 10.6715 3.75 10.2002 3.75V2.25ZM13.6418 8.49751C13.6418 7.88826 13.0653 7.55179 12.583 7.66633L12.9295 9.12575C12.5815 9.2084 12.1418 8.96873 12.1418 8.49751H13.6418ZM13.6418 3.1C13.6418 2.63056 13.2613 2.25 12.7918 2.25V3.75C12.4328 3.75 12.1418 3.45898 12.1418 3.1H13.6418ZM7.39403 11.8581C6.92276 11.8581 6.68311 11.4184 6.76581 11.0703L8.22518 11.4171C8.33979 10.9347 8.00333 10.3581 7.39403 10.3581V11.8581ZM12.583 6.5224C13.0653 6.63694 13.6418 6.30047 13.6418 5.69122H12.1418C12.1418 5.22 12.5815 4.98033 12.9295 5.06299L12.583 6.5224ZM4.03372 11.0081C4.03372 11.4775 4.41427 11.8581 4.88372 11.8581V10.3581C5.2427 10.3581 5.53372 10.6491 5.53372 11.0081H4.03372ZM12.7918 11.8581C13.2613 11.8581 13.6418 11.4775 13.6418 11.0081H12.1418C12.1418 10.6491 12.4328 10.3581 12.7918 10.3581V11.8581ZM4.03372 5.69123C4.03372 5.22 4.4734 4.98034 4.82145 5.063L4.47484 6.5224C4.95717 6.63696 5.53372 6.30049 5.53372 5.69123H4.03372ZM4.82145 9.12573C4.47341 9.2084 4.03372 8.96874 4.03372 8.4975H5.53372C5.53372 7.88824 4.95717 7.55177 4.47484 7.66633L4.82145 9.12573ZM10.8285 11.0703C10.9112 11.4184 10.6715 11.8581 10.2002 11.8581V10.3581C9.59093 10.3581 9.25448 10.9347 9.36908 11.4171L10.8285 11.0703ZM4.88372 2.25C4.41428 2.25 4.03372 2.63056 4.03372 3.1H5.53372C5.53372 3.45899 5.2427 3.75 4.88372 3.75V2.25ZM8.22518 3.30894C8.33977 2.82659 8.00331 2.25 7.39402 2.25V3.75C6.92276 3.75 6.68311 3.31028 6.7658 2.96223L8.22518 3.30894Z" fill="#111827"/>
<path d="M10.135 11.5537C10.135 12.2925 9.536 12.8915 8.79713 12.8915C8.05826 12.8915 7.45929 12.2925 7.45929 11.5537C7.45929 11.4467 7.47184 11.3427 7.49554 11.243C7.51151 11.1759 7.4631 11.1074 7.39408 11.1074H4.88372C4.82849 11.1074 4.78372 11.1522 4.78372 11.2074V13.7987C4.78372 13.8677 4.71529 13.9161 4.64814 13.9001C4.54856 13.8765 4.44466 13.8639 4.33784 13.8639C3.59897 13.8639 3 14.4629 3 15.2018C3 15.9407 3.59897 16.5396 4.33784 16.5396C4.44466 16.5396 4.54856 16.5271 4.64814 16.5035C4.71529 16.4875 4.78372 16.5359 4.78372 16.6049V19.1155C4.78372 19.1708 4.82849 19.2155 4.88372 19.2155H7.39403C7.46304 19.2155 7.51145 19.284 7.49549 19.3511C7.47182 19.4507 7.45929 19.5547 7.45929 19.6615C7.45929 20.4004 8.05826 20.9994 8.79713 20.9994C9.536 20.9994 10.135 20.4004 10.135 19.6615C10.135 19.5547 10.1224 19.4507 10.0988 19.3511C10.0828 19.284 10.1312 19.2155 10.2002 19.2155H12.7918C12.8471 19.2155 12.8918 19.1708 12.8918 19.1155V16.6052C12.8918 16.5362 12.8234 16.4878 12.7563 16.5037C12.6567 16.5274 12.5528 16.5399 12.446 16.5399C11.7071 16.5399 11.1081 15.9409 11.1081 15.202C11.1081 14.4632 11.7071 13.8642 12.446 13.8642C12.5528 13.8642 12.6567 13.8767 12.7563 13.9004C12.8234 13.9163 12.8918 13.8679 12.8918 13.7989V11.2074C12.8918 11.1522 12.8471 11.1074 12.7918 11.1074H10.2002C10.1312 11.1074 10.0828 11.1759 10.0987 11.243C10.1224 11.3427 10.135 11.4467 10.135 11.5537Z" fill="#111827"/>
<path d="M18.2426 3.44598C18.2426 4.18485 17.6437 4.78382 16.9048 4.78382C16.1659 4.78382 15.567 4.18485 15.567 3.44598C15.567 3.33912 15.5795 3.2352 15.6032 3.13558C15.6191 3.06844 15.5707 3 15.5017 3H12.9911C12.9359 3 12.8911 3.04477 12.8911 3.1V5.69123C12.8911 5.76024 12.8227 5.80865 12.7556 5.7927C12.656 5.76905 12.5521 5.75653 12.4453 5.75653C11.7064 5.75653 11.1074 6.3555 11.1074 7.09437C11.1074 7.83323 11.7064 8.4322 12.4453 8.4322C12.5521 8.4322 12.656 8.41968 12.7556 8.39603C12.8227 8.38008 12.8911 8.42849 12.8911 8.4975V11.0081C12.8911 11.0633 12.9359 11.1081 12.9911 11.1081H15.5014C15.5705 11.1081 15.6189 11.1765 15.6029 11.2437C15.5792 11.3433 15.5667 11.4473 15.5667 11.5541C15.5667 12.293 16.1657 12.892 16.9046 12.892C17.6434 12.892 18.2424 12.293 18.2424 11.5541C18.2424 11.4473 18.2299 11.3433 18.2062 11.2437C18.1902 11.1765 18.2386 11.1081 18.3077 11.1081H20.8992C20.9545 11.1081 20.9992 11.0633 20.9992 11.0081V8.49757C20.9992 8.42857 20.9308 8.38016 20.8637 8.39609C20.7642 8.41971 20.6604 8.4322 20.5537 8.4322C19.8148 8.4322 19.2158 7.83323 19.2158 7.09437C19.2158 6.3555 19.8148 5.75653 20.5537 5.75653C20.6604 5.75653 20.7642 5.76902 20.8637 5.79264C20.9308 5.80857 20.9992 5.76016 20.9992 5.69116V3.1C20.9992 3.04477 20.9545 3 20.8992 3H18.3079C18.2389 3 18.1905 3.06844 18.2065 3.13558C18.2301 3.2352 18.2426 3.33912 18.2426 3.44598Z" fill="#111827"/>
<path d="M10.135 11.5537C10.135 12.2925 9.536 12.8915 8.79713 12.8915C8.05826 12.8915 7.45929 12.2925 7.45929 11.5537C7.45929 11.4467 7.47184 11.3427 7.49554 11.243C7.51151 11.1759 7.4631 11.1074 7.39408 11.1074H4.88372C4.82849 11.1074 4.78372 11.1522 4.78372 11.2074V13.7987C4.78372 13.8677 4.71529 13.9161 4.64814 13.9001C4.54856 13.8765 4.44466 13.8639 4.33784 13.8639C3.59897 13.8639 3 14.4629 3 15.2018C3 15.9407 3.59897 16.5396 4.33784 16.5396C4.44466 16.5396 4.54856 16.5271 4.64814 16.5035C4.71529 16.4875 4.78372 16.5359 4.78372 16.6049V19.1155C4.78372 19.1708 4.82849 19.2155 4.88372 19.2155H7.39403C7.46304 19.2155 7.51145 19.284 7.49549 19.3511C7.47182 19.4507 7.45929 19.5547 7.45929 19.6615C7.45929 20.4004 8.05826 20.9994 8.79713 20.9994C9.536 20.9994 10.135 20.4004 10.135 19.6615C10.135 19.5547 10.1224 19.4507 10.0988 19.3511C10.0828 19.284 10.1312 19.2155 10.2002 19.2155H12.7918C12.8471 19.2155 12.8918 19.1708 12.8918 19.1155V16.6052C12.8918 16.5362 12.8234 16.4878 12.7563 16.5037C12.6567 16.5274 12.5528 16.5399 12.446 16.5399C11.7071 16.5399 11.1081 15.9409 11.1081 15.202C11.1081 14.4632 11.7071 13.8642 12.446 13.8642C12.5528 13.8642 12.6567 13.8767 12.7563 13.9004C12.8234 13.9163 12.8918 13.8679 12.8918 13.7989V11.2074C12.8918 11.1522 12.8471 11.1074 12.7918 11.1074H10.2002C10.1312 11.1074 10.0828 11.1759 10.0987 11.243C10.1224 11.3427 10.135 11.4467 10.135 11.5537Z" stroke="#111827" stroke-width="1.5"/>
<path d="M18.2426 3.44598C18.2426 4.18485 17.6437 4.78382 16.9048 4.78382C16.1659 4.78382 15.567 4.18485 15.567 3.44598C15.567 3.33912 15.5795 3.2352 15.6032 3.13558C15.6191 3.06844 15.5707 3 15.5017 3H12.9911C12.9359 3 12.8911 3.04477 12.8911 3.1V5.69123C12.8911 5.76024 12.8227 5.80865 12.7556 5.7927C12.656 5.76905 12.5521 5.75653 12.4453 5.75653C11.7064 5.75653 11.1074 6.3555 11.1074 7.09437C11.1074 7.83323 11.7064 8.4322 12.4453 8.4322C12.5521 8.4322 12.656 8.41968 12.7556 8.39603C12.8227 8.38008 12.8911 8.42849 12.8911 8.4975V11.0081C12.8911 11.0633 12.9359 11.1081 12.9911 11.1081H15.5014C15.5705 11.1081 15.6189 11.1765 15.6029 11.2437C15.5792 11.3433 15.5667 11.4473 15.5667 11.5541C15.5667 12.293 16.1657 12.892 16.9046 12.892C17.6434 12.892 18.2424 12.293 18.2424 11.5541C18.2424 11.4473 18.2299 11.3433 18.2062 11.2437C18.1902 11.1765 18.2386 11.1081 18.3077 11.1081H20.8992C20.9545 11.1081 20.9992 11.0633 20.9992 11.0081V8.49757C20.9992 8.42857 20.9308 8.38016 20.8637 8.39609C20.7642 8.41971 20.6604 8.4322 20.5537 8.4322C19.8148 8.4322 19.2158 7.83323 19.2158 7.09437C19.2158 6.3555 19.8148 5.75653 20.5537 5.75653C20.6604 5.75653 20.7642 5.76902 20.8637 5.79264C20.9308 5.80857 20.9992 5.76016 20.9992 5.69116V3.1C20.9992 3.04477 20.9545 3 20.8992 3H18.3079C18.2389 3 18.1905 3.06844 18.2065 3.13558C18.2301 3.2352 18.2426 3.33912 18.2426 3.44598Z" stroke="#111827" stroke-width="1.5"/>
</svg>
