<svg width="24" height="24" viewBox="0 0 24 24" fill="none" xmlns="http://www.w3.org/2000/svg">
<path fill-rule="evenodd" clip-rule="evenodd" d="M18.6663 3C18.9373 3 19.157 3.22415 19.157 3.50066V6.33775H21.9378C22.2089 6.33775 22.4286 6.5619 22.4286 6.83841C22.4286 7.11492 22.2089 7.33907 21.9378 7.33907H19.157V10.1762C19.157 10.4527 18.9373 10.6768 18.6663 10.6768C18.3953 10.6768 18.1756 10.4527 18.1756 10.1762V7.33907H15.3948C15.1237 7.33907 14.904 7.11492 14.904 6.83841C14.904 6.5619 15.1237 6.33775 15.3948 6.33775H18.1756V3.50066C18.1756 3.22415 18.3953 3 18.6663 3Z" fill="#111827"/>
<path fill-rule="evenodd" clip-rule="evenodd" d="M14.1219 7.16961C14.0824 6.98972 13.9397 6.83841 13.759 6.83841H2.89282C1.84744 6.83841 1 7.70301 1 8.76954V19.0689C1 20.1354 1.84744 21 2.89282 21H16.7735C17.8189 21 18.6663 20.1354 18.6663 19.0689V11.845C18.6663 11.6607 18.518 11.5151 18.3417 11.4748C17.681 11.3238 17.1873 10.7219 17.1873 10.0023V8.68113C17.1873 8.49679 17.0408 8.34735 16.8601 8.34735L15.5652 8.34735C14.8598 8.34735 14.2698 7.84365 14.1219 7.16961ZM2.26188 19.0689V17.4044L6.41711 13.1651C6.90991 12.6623 7.70888 12.6623 8.20168 13.1651L12.5417 17.5929C12.7881 17.8443 13.1876 17.8443 13.434 17.5929C13.6804 17.3415 13.6804 16.934 13.434 16.6826L12.6183 15.8503L13.3574 15.0962C13.8502 14.5934 14.6492 14.5934 15.142 15.0962L17.4044 17.4044V19.0689C17.4044 19.4244 17.1219 19.7126 16.7735 19.7126H2.89282C2.54436 19.7126 2.26188 19.4244 2.26188 19.0689ZM11.726 9.7351C11.2033 9.7351 10.7796 10.1674 10.7796 10.7007C10.7796 11.2339 11.2033 11.6662 11.726 11.6662C12.2487 11.6662 12.6724 11.2339 12.6724 10.7007C12.6724 10.1674 12.2487 9.7351 11.726 9.7351Z" fill="#111827"/>
</svg>
