<svg width="24" height="24" viewBox="0 0 24 24" fill="none" xmlns="http://www.w3.org/2000/svg">
<path fill-rule="evenodd" clip-rule="evenodd" d="M11.9085 14.7266C12.3023 14.7266 12.6215 15.0827 12.6215 15.522L12.6215 19.2289L14.2571 17.1795C14.53 16.8628 15.0523 16.7781 15.3361 17.0826C15.6199 17.3871 15.6091 17.9116 15.3362 18.2282L12.4224 21.7552C12.288 21.9111 12.1025 21.9993 11.9085 21.9993C11.7146 21.9993 11.529 21.9111 11.3946 21.7552L8.48099 18.2282C8.20808 17.9116 8.19717 17.3872 8.48099 17.0827C8.76481 16.7782 9.28713 16.8629 9.56004 17.1796L11.1956 19.2289L11.1956 15.522C11.1956 15.0827 11.5148 14.7266 11.9085 14.7266Z" fill="#111827"/>
<path fill-rule="evenodd" clip-rule="evenodd" d="M2.21212 2C1.54269 2 1 2.54269 1 3.21212V12.9091C1 13.5785 1.54269 14.1212 2.21212 14.1212H21.6061C22.2755 14.1212 22.8182 13.5785 22.8182 12.9091V3.21212C22.8182 2.54269 22.2755 2 21.6061 2H2.21212ZM11.9091 11.697C13.9174 11.697 15.5455 10.0689 15.5455 8.06061C15.5455 6.0523 13.9174 4.42424 11.9091 4.42424C9.90078 4.42424 8.27273 6.0523 8.27273 8.06061C8.27273 10.0689 9.90078 11.697 11.9091 11.697ZM5.84848 8.06061C5.84848 8.73004 5.3058 9.27273 4.63636 9.27273C3.96693 9.27273 3.42424 8.73004 3.42424 8.06061C3.42424 7.39117 3.96693 6.84848 4.63636 6.84848C5.3058 6.84848 5.84848 7.39117 5.84848 8.06061ZM19.1818 9.27273C19.8513 9.27273 20.3939 8.73004 20.3939 8.06061C20.3939 7.39117 19.8513 6.84848 19.1818 6.84848C18.5124 6.84848 17.9697 7.39117 17.9697 8.06061C17.9697 8.73004 18.5124 9.27273 19.1818 9.27273Z" fill="#111827"/>
</svg>
