<svg width="24" height="24" viewBox="0 0 24 24" fill="none" xmlns="http://www.w3.org/2000/svg">
<path fill-rule="evenodd" clip-rule="evenodd" d="M11.9085 9.27371C12.3023 9.27371 12.6215 8.91758 12.6215 8.47826L12.6215 4.77137L14.2571 6.82079C14.53 7.13746 15.0523 7.22216 15.3361 6.91766C15.6199 6.61317 15.6091 6.0887 15.3362 5.77203L12.4224 2.2451C12.288 2.08913 12.1025 2.00098 11.9085 2.00098C11.7146 2.00098 11.529 2.08913 11.3946 2.2451L8.48099 5.77203C8.20808 6.0887 8.19717 6.61309 8.48099 6.91758C8.76481 7.22208 9.28713 7.13738 9.56004 6.82071L11.1956 4.77137L11.1956 8.47826C11.1956 8.91758 11.5148 9.27371 11.9085 9.27371Z" fill="#111827"/>
<path fill-rule="evenodd" clip-rule="evenodd" d="M2.21212 22.0003C1.54269 22.0003 1 21.4576 1 20.7882V11.0912C1 10.4217 1.54269 9.87906 2.21212 9.87906H21.6061C22.2755 9.87906 22.8182 10.4217 22.8182 11.0912V20.7882C22.8182 21.4576 22.2755 22.0003 21.6061 22.0003H2.21212ZM11.9091 12.3033C13.9174 12.3033 15.5455 13.9314 15.5455 15.9397C15.5455 17.948 13.9174 19.576 11.9091 19.576C9.90078 19.576 8.27273 17.948 8.27273 15.9397C8.27273 13.9314 9.90078 12.3033 11.9091 12.3033ZM5.84848 15.9397C5.84848 15.2702 5.3058 14.7275 4.63636 14.7275C3.96693 14.7275 3.42424 15.2702 3.42424 15.9397C3.42424 16.6091 3.96693 17.1518 4.63636 17.1518C5.3058 17.1518 5.84848 16.6091 5.84848 15.9397ZM19.1818 14.7275C19.8513 14.7275 20.3939 15.2702 20.3939 15.9397C20.3939 16.6091 19.8513 17.1518 19.1818 17.1518C18.5124 17.1518 17.9697 16.6091 17.9697 15.9397C17.9697 15.2702 18.5124 14.7275 19.1818 14.7275Z" fill="#111827"/>
</svg>
