<svg width="24" height="24" viewBox="0 0 24 24" fill="none" xmlns="http://www.w3.org/2000/svg">
<path fill-rule="evenodd" clip-rule="evenodd" d="M12.6001 3.41072L15.4771 6.633C15.661 6.83899 15.9771 6.85688 16.1831 6.67296C16.3891 6.48905 16.407 6.17297 16.2231 5.96699L12.6223 1.93408C12.3439 1.62236 11.8563 1.62236 11.5779 1.93408L7.97713 5.96699C7.79322 6.17297 7.81111 6.48905 8.01709 6.67296C8.22308 6.85688 8.53916 6.83899 8.72307 6.633L11.6001 3.41073V9.99999C11.6001 12.2091 13.391 14 15.6001 14H16.0481C16.2812 15.1967 17.3352 16.1 18.6001 16.1C20.036 16.1 21.2001 14.9359 21.2001 13.5C21.2001 12.0641 20.036 10.9 18.6001 10.9C17.3352 10.9 16.2812 11.8033 16.0481 13H15.6001C13.9432 13 12.6001 11.6568 12.6001 9.99999V3.41072Z" fill="black"/>
<path fill-rule="evenodd" clip-rule="evenodd" d="M10.8923 11.9354C10.342 12.5865 9.5193 13 8.6 13H8.15197C7.91886 11.8033 6.86491 10.9 5.6 10.9C4.16406 10.9 3 12.0641 3 13.5C3 14.9359 4.16406 16.1 5.6 16.1C6.86491 16.1 7.91886 15.1967 8.15197 14H8.6C9.67654 14 10.6537 13.5747 11.3728 12.883C11.1787 12.5886 11.0169 12.271 10.8923 11.9354Z" fill="black"/>
<path fill-rule="evenodd" clip-rule="evenodd" d="M11.6 13.1986V16.748C10.4033 16.9811 9.5 18.0351 9.5 19.3C9.5 20.7359 10.6641 21.9 12.1 21.9C13.5359 21.9 14.7 20.7359 14.7 19.3C14.7 18.0351 13.7967 16.9811 12.6 16.748V14.1476C12.2219 13.8818 11.8848 13.5617 11.6 13.1986Z" fill="black"/>
</svg>
