<svg width="24" height="24" viewBox="0 0 24 24" fill="none" xmlns="http://www.w3.org/2000/svg">
<path d="M2.01678 10.8184C2.59373 10.309 3.35164 10 4.18174 10H13.9999C14.83 10 15.5879 10.309 16.1649 10.8184C16.0307 9.742 15.1126 8.90909 13.9999 8.90909H4.18174C3.06906 8.90909 2.15091 9.742 2.01678 10.8184Z" fill="#111827"/>
<path d="M2.01678 13.0002C2.59373 12.4909 3.35164 12.1818 4.18174 12.1818H13.9999C14.83 12.1818 15.5879 12.4909 16.1649 13.0002C16.0307 11.9238 15.1126 11.0909 13.9999 11.0909H4.18174C3.06906 11.0909 2.15091 11.9238 2.01678 13.0002Z" fill="#111827"/>
<path d="M4.18182 13.2727C2.97683 13.2727 2 14.2496 2 15.4545V19.8182C2 21.0232 2.97683 22 4.18182 22H14C15.205 22 16.1818 21.0232 16.1818 19.8182V15.4545C16.1818 14.2496 15.205 13.2727 14 13.2727H11.2727C10.9715 13.2727 10.7273 13.5169 10.7273 13.8182C10.7273 14.7219 9.99465 15.4545 9.09091 15.4545C8.18717 15.4545 7.45455 14.7219 7.45455 13.8182C7.45455 13.5169 7.21034 13.2727 6.90909 13.2727H4.18182Z" fill="#111827"/>
<path d="M14.5456 6.74133C16.6543 6.74133 18.3637 8.45079 18.3637 10.5595M14.5456 3.46858C18.4618 3.46858 21.6365 6.64328 21.6365 10.5595" stroke="#111827" stroke-width="1.25" stroke-linecap="round" stroke-linejoin="round"/>
</svg>
