<svg width="24" height="24" viewBox="0 0 24 24" fill="none" xmlns="http://www.w3.org/2000/svg">
<path fill-rule="evenodd" clip-rule="evenodd" d="M8.16633 1.21875C8.06719 1.21875 7.97438 1.22109 7.88746 1.22537C7.47096 1.24589 7.14024 1.43669 6.91398 1.72551C6.69165 2.00938 6.57622 2.37881 6.55858 2.76123C6.52547 3.47973 6.49327 4.62491 6.48958 6.38987C7.37791 6.33596 8.48086 6.29116 9.84274 6.26768C9.83786 4.57185 9.80637 3.46301 9.77403 2.76123C9.7564 2.37881 9.64101 2.00938 9.41863 1.72551C9.19242 1.43669 8.86165 1.24589 8.44516 1.22537C8.35828 1.22109 8.26542 1.21875 8.16633 1.21875ZM17.5097 6.38987C16.6214 6.33596 15.5184 6.29116 14.1565 6.26768C14.1614 4.57185 14.1929 3.46301 14.2252 2.76123C14.2429 2.37881 14.3583 2.00938 14.5806 1.72551C14.8069 1.43669 15.1376 1.24589 15.5541 1.22537C15.641 1.22109 15.7339 1.21875 15.833 1.21875C15.9321 1.21875 16.025 1.22109 16.1118 1.22537C16.5283 1.24589 16.859 1.43669 17.0853 1.72551C17.3077 2.00938 17.4231 2.37881 17.4407 2.76123C17.4738 3.47973 17.5061 4.62491 17.5097 6.38987ZM9.5989 19.3282C9.30421 19.3059 9.03956 19.2825 8.81747 19.2611C8.05536 19.1881 7.4541 18.601 7.35419 17.8474C7.31682 17.5655 7.27038 17.2019 7.21691 16.7567C5.29021 15.8318 4.05535 14.8614 3.45847 14.3309C3.07784 13.9925 2.83098 13.5331 2.76028 13.0276C2.6073 11.9336 2.65037 10.7007 2.71671 9.82377C2.79865 8.74047 3.59911 7.86417 4.70539 7.73987C5.92738 7.60259 8.15536 7.44792 12 7.44792C15.8446 7.44792 18.0726 7.60259 19.2946 7.73987C20.4009 7.86417 21.2013 8.74052 21.2833 9.82377C21.3496 10.7007 21.3927 11.9336 21.2397 13.0276C21.169 13.5331 20.9222 13.9925 20.5415 14.3309C19.9447 14.8614 18.7098 15.8318 16.7831 16.7567C16.7296 17.2019 16.6832 17.5655 16.6458 17.8474C16.5459 18.601 15.9446 19.1881 15.1825 19.2611C14.9604 19.2825 14.6956 19.3059 14.4008 19.3282C14.3071 20.4008 14.2113 21.3115 14.1684 21.7087C14.1293 22.0709 13.8959 22.4995 13.4019 22.6342C13.1198 22.7111 12.6782 22.7812 11.9999 22.7812C11.3215 22.7812 10.8799 22.7111 10.5978 22.6342C10.1038 22.4995 9.87039 22.0709 9.83124 21.7087C9.78836 21.3115 9.69257 20.4008 9.5989 19.3282Z" fill="currentColor"/>
</svg>
