<svg width="24" height="24" viewBox="0 0 24 24" fill="none" xmlns="http://www.w3.org/2000/svg">
<path fill-rule="evenodd" clip-rule="evenodd" d="M13.7105 3.02881C14.3345 1.46802 15.9356 0.730011 17.5482 0.730011C19.0084 0.730011 20.4504 1.39701 21.0627 2.78774C21.5447 3.8824 22.0383 5.41938 22.2151 7.35943C22.4073 9.46867 21.0724 11.4469 18.9938 11.8424L20.0012 20.2852C20.1604 21.6193 19.3283 22.961 17.9467 23.151C17.7581 23.1769 17.5782 23.1938 17.4264 23.1938C17.2745 23.1938 17.0947 23.1769 16.9061 23.151C15.5245 22.961 14.6923 21.6193 14.8515 20.2852L15.8642 11.7989C13.9249 11.3546 12.6547 9.52382 12.7555 7.52258C12.85 5.64564 13.2677 4.13622 13.7105 3.02881ZM2.29597 2.19171C2.43431 1.37387 3.14831 0.806055 3.9651 0.806055H4.11077C4.17891 0.806055 4.24412 0.833942 4.29122 0.883201C4.33832 0.932507 4.36319 0.998919 4.36008 1.06701L4.13842 5.94373C4.12279 6.28801 4.38916 6.57973 4.73344 6.59539C5.07773 6.61106 5.36949 6.34465 5.38511 6.00037L5.61042 1.04434C5.61645 0.91104 5.72633 0.806055 5.85977 0.806055H7.15817C7.29162 0.806055 7.40149 0.91104 7.40753 1.04434L7.63279 6.00037C7.64841 6.34465 7.94022 6.61101 8.2845 6.59539C8.62874 6.57973 8.89515 6.28801 8.87948 5.94373L8.65787 1.06701C8.65475 0.998919 8.67962 0.932507 8.72668 0.883201C8.77383 0.833942 8.83899 0.806055 8.90713 0.806055H9.05256C9.86915 0.806055 10.5831 1.37363 10.7215 2.19123C10.9526 3.5557 11.2763 5.9421 11.2503 8.49404C11.2358 9.91171 10.2869 11.186 8.79755 11.5198C8.58043 11.5685 8.35211 11.6135 8.11502 11.6523L9.03454 20.4105C9.17221 21.7222 8.35537 23.0404 6.99573 23.2297C6.82012 23.2541 6.65217 23.27 6.50919 23.27C6.36621 23.27 6.19826 23.2541 6.02264 23.2297C4.66301 23.0404 3.84612 21.7222 3.98384 20.4105L4.90336 11.6522C4.66631 11.6135 4.43804 11.5685 4.22098 11.5198C2.73149 11.186 1.78254 9.91161 1.76807 8.49395C1.7421 5.94234 2.06525 3.55618 2.29597 2.19171Z" fill="currentColor"/>
</svg>
