<svg width="24" height="24" viewBox="0 0 24 24" fill="none" xmlns="http://www.w3.org/2000/svg">
<path fill-rule="evenodd" clip-rule="evenodd" d="M8.646 2.17709C9.36312 2.17709 10.0344 2.45314 10.5237 2.97078C11.0129 3.48842 11.2814 4.20538 11.2814 5.02547C11.2814 5.83203 11.023 6.64072 10.5919 7.2623C10.1676 7.8741 9.49561 8.40626 8.646 8.40626C7.79639 8.40626 7.1244 7.8741 6.7001 7.2623C6.26899 6.64072 6.01058 5.83203 6.01058 5.02547C6.01058 4.20538 6.2791 3.48842 6.76833 2.97078C7.25756 2.45314 7.92887 2.17709 8.646 2.17709ZM3.37516 6.48959C4.09229 6.48959 4.76362 6.76564 5.25283 7.28329C5.74205 7.80093 6.01058 8.51786 6.01058 9.33795C6.01058 10.1445 5.75216 10.9532 5.32106 11.5748C4.89676 12.1866 4.22477 12.7188 3.37516 12.7188C2.52555 12.7188 1.85356 12.1866 1.42927 11.5748C0.99817 10.9532 0.739746 10.1445 0.739746 9.33795C0.739746 8.51786 1.0083 7.80093 1.4975 7.28329C1.98671 6.76564 2.65803 6.48959 3.37516 6.48959ZM20.6252 6.48959C19.908 6.48959 19.2367 6.76564 18.7475 7.28329C18.2583 7.80093 17.9897 8.51786 17.9897 9.33795C17.9897 10.1445 18.2482 10.9532 18.6793 11.5748C19.1036 12.1866 19.7756 12.7188 20.6252 12.7188C21.4748 12.7188 22.1468 12.1866 22.5711 11.5748C23.0022 10.9532 23.2606 10.1445 23.2606 9.33795C23.2606 8.51786 22.9921 7.80093 22.5028 7.28329C22.0136 6.76564 21.3423 6.48959 20.6252 6.48959ZM15.3543 2.17709C14.6372 2.17709 13.9659 2.45314 13.4767 2.97078C12.9874 3.48842 12.7189 4.20538 12.7189 5.02547C12.7189 5.83203 12.9773 6.64072 13.4084 7.2623C13.8327 7.8741 14.5047 8.40626 15.3543 8.40626C16.2039 8.40626 16.8759 7.8741 17.3002 7.2623C17.7313 6.64072 17.9897 5.83203 17.9897 5.02547C17.9897 4.20538 17.7212 3.48842 17.232 2.97078C16.7428 2.45314 16.0715 2.17709 15.3543 2.17709ZM12.0004 8.88543C8.29491 8.88543 5.32662 12.0205 4.40302 15.8014C3.96506 17.5943 4.62669 19.5643 6.32927 20.5067C7.581 21.1996 9.42689 21.8229 12.0004 21.8229C14.5738 21.8229 16.4197 21.1996 17.6714 20.5067C19.374 19.5642 20.0356 17.5943 19.5977 15.8014C18.6741 12.0205 15.7058 8.88543 12.0004 8.88543Z" fill="#111827"/>
</svg>
