<svg width="24" height="24" viewBox="0 0 24 24" fill="none" xmlns="http://www.w3.org/2000/svg">
<path fill-rule="evenodd" clip-rule="evenodd" d="M16.9823 13.4466C17.0342 13.1869 17.2622 13 17.5271 13H18.8384C19.1032 13 19.3312 13.1869 19.3832 13.4466L19.5668 14.3646C19.958 14.5137 20.3191 14.7241 20.638 14.9841L21.526 14.6837C21.7768 14.5988 22.0527 14.7028 22.1851 14.9322L22.8408 16.0678C22.9732 16.2972 22.9253 16.5881 22.7264 16.7629L22.0227 17.3814C22.0549 17.5828 22.0716 17.7895 22.0716 18C22.0716 18.2105 22.0549 18.4172 22.0227 18.6186L22.7264 19.2371C22.9253 19.4119 22.9732 19.7028 22.8408 19.9322L22.1851 21.0678C22.0527 21.2972 21.7768 21.4012 21.526 21.3163L20.638 21.0159C20.3191 21.2759 19.958 21.4863 19.5668 21.6354L19.3832 22.5534C19.3312 22.8131 19.1032 23 18.8384 23H17.5271C17.2622 23 17.0342 22.8131 16.9823 22.5534L16.7987 21.6354C16.4074 21.4863 16.0464 21.2759 15.7274 21.0159L14.8395 21.3163C14.5886 21.4012 14.3127 21.2972 14.1803 21.0678L13.5246 19.9322C13.3922 19.7028 13.4401 19.4119 13.639 19.2371L14.3428 18.6186C14.3106 18.4172 14.2938 18.2105 14.2938 18C14.2938 17.7895 14.3106 17.5828 14.3428 17.3814L13.639 16.7629C13.4401 16.5881 13.3922 16.2972 13.5246 16.0678L14.1803 14.9322C14.3127 14.7028 14.5886 14.5988 14.8395 14.6837L15.7274 14.9841C16.0464 14.7241 16.4074 14.5137 16.7987 14.3646L16.9823 13.4466ZM18.1827 19.6667C19.1032 19.6667 19.8494 18.9205 19.8494 18C19.8494 17.0795 19.1032 16.3333 18.1827 16.3333C17.2622 16.3333 16.5161 17.0795 16.5161 18C16.5161 18.9205 17.2622 19.6667 18.1827 19.6667Z" fill="currentColor"/>
<path fill-rule="evenodd" clip-rule="evenodd" d="M6.32568 6.25V5.5C6.32568 3.01472 8.3404 1 10.8257 1C13.311 1 15.3257 3.01472 15.3257 5.5V6.25H17.313C18.2725 6.25 19.0772 6.97444 19.1777 7.92872L19.5498 11.4639C19.586 11.8079 19.2694 12.0848 18.926 12.0434C18.6881 12.0148 18.4459 12 18.2003 12C14.8866 12 12.2003 14.6863 12.2003 18C12.2003 19.1354 12.5157 20.1971 13.0635 21.1023C13.2874 21.4721 13.0418 22 12.6096 22H3.0754C1.96221 22 1.09416 21.0358 1.2107 19.9287L2.47386 7.92872C2.57431 6.97444 3.37901 6.25 4.33855 6.25H6.32568ZM7.82568 5.5C7.82568 3.84315 9.16883 2.5 10.8257 2.5C12.4825 2.5 13.8257 3.84315 13.8257 5.5V6.25H7.82568V5.5Z" fill="currentColor"/>
</svg>
