<svg width="24" height="24" viewBox="0 0 24 24" fill="none" xmlns="http://www.w3.org/2000/svg">
<path fill-rule="evenodd" clip-rule="evenodd" d="M12.25 1.5C10.329 1.5 8.43374 1.61114 6.57022 1.82741C5.07283 2.00119 4 3.28722 4 4.75699V21.75C4 21.9989 4.12345 22.2315 4.32953 22.3711C4.53561 22.5106 4.79747 22.5388 5.02854 22.4464L8.5 21.0578L11.9715 22.4464C12.1503 22.5179 12.3497 22.5179 12.5285 22.4464L16 21.0578L19.4715 22.4464C19.7025 22.5388 19.9644 22.5106 20.1705 22.3711C20.3766 22.2315 20.5 21.9989 20.5 21.75V4.75699C20.5 3.28722 19.4272 2.00119 17.9298 1.82741C16.0663 1.61114 14.171 1.5 12.25 1.5ZM8.75 6.25C8.33579 6.25 8 6.58579 8 7C8 7.41421 8.33579 7.75 8.75 7.75H15.75C16.1642 7.75 16.5 7.41421 16.5 7C16.5 6.58579 16.1642 6.25 15.75 6.25H8.75ZM8 11.5C8 11.0858 8.33579 10.75 8.75 10.75H15.75C16.1642 10.75 16.5 11.0858 16.5 11.5C16.5 11.9142 16.1642 12.25 15.75 12.25H8.75C8.33579 12.25 8 11.9142 8 11.5ZM8.75 15.25C8.33579 15.25 8 15.5858 8 16C8 16.4142 8.33579 16.75 8.75 16.75H15.75C16.1642 16.75 16.5 16.4142 16.5 16C16.5 15.5858 16.1642 15.25 15.75 15.25H8.75Z" fill="currentColor"/>
</svg>
