<svg id="spin" width="24" height="24" viewBox="0 0 24 24" fill="currentColor" xmlns="http://www.w3.org/2000/svg">
  <path opacity="0.3" fill-rule="evenodd" clip-rule="evenodd" d="M12 2.28923C6.63689 2.28923 2.28923 6.63689 2.28923 12C2.28923 17.3631 6.63689 21.7108 12 21.7108C17.3631 21.7108 21.7108 17.3631 21.7108 12C21.7108 6.63689 17.3631 2.28923 12 2.28923ZM0 12C0 5.37258 5.37258 0 12 0C18.6274 0 24 5.37258 24 12C24 18.6274 18.6274 24 12 24C5.37258 24 0 18.6274 0 12Z" />
  <path fill-rule="evenodd" clip-rule="evenodd" d="M10.8552 1.14462C10.8552 0.512462 11.3677 0 11.9998 0C18.6273 0 23.9998 5.37258 23.9998 12C23.9998 12.6322 23.4874 13.1446 22.8552 13.1446C22.2231 13.1446 21.7106 12.6322 21.7106 12C21.7106 6.63689 17.3629 2.28923 11.9998 2.28923C11.3677 2.28923 10.8552 1.77677 10.8552 1.14462Z" />
</svg>