<svg width="24" height="24" viewBox="0 0 24 24" fill="none" xmlns="http://www.w3.org/2000/svg">
<g clip-path="url(#clip0_7876_74601)">
<path fill-rule="evenodd" clip-rule="evenodd" d="M5.562 6.40647C6.2892 5.76453 7.24449 5.375 8.29075 5.375H20.6658C21.712 5.375 22.6673 5.76453 23.3945 6.40647C23.2254 5.04982 22.0682 4 20.6658 4H8.29075C6.88831 4 5.73107 5.04982 5.562 6.40647ZM5.562 9.15647C6.2892 8.51452 7.24449 8.125 8.29075 8.125H20.6658C21.712 8.125 22.6673 8.51453 23.3945 9.15647C23.2254 7.79982 22.0682 6.75 20.6658 6.75H8.29075C6.88831 6.75 5.73107 7.79982 5.562 9.15647ZM5.54085 12.25C5.54085 10.7312 6.77207 9.5 8.29085 9.5H11.7284C12.108 9.5 12.4159 9.8078 12.4159 10.1875C12.4159 11.3266 13.3393 12.25 14.4784 12.25C15.6174 12.25 16.5409 11.3266 16.5409 10.1875C16.5409 9.8078 16.8487 9.5 17.2284 9.5H20.6659C22.1846 9.5 23.4159 10.7312 23.4159 12.25V17.75C23.4159 19.2688 22.1846 20.5 20.6659 20.5H8.29085C6.77207 20.5 5.54085 19.2688 5.54085 17.75V15.6868H8.47868C8.85837 15.6868 9.16618 15.379 9.16618 14.9993C9.16618 14.6197 8.85837 14.3118 8.47868 14.3118H5.54085V12.25ZM5.54085 14.3118H2.39392L4.37186 12.5158C4.64556 12.2526 4.65409 11.8174 4.39092 11.5437C4.12775 11.27 3.69253 11.2614 3.41883 11.5246L0.2105 14.5038C0.075696 14.6334 -0.000488281 14.8123 -0.000488281 14.9993C-0.000488281 15.1864 0.075696 15.3653 0.2105 15.4949L3.41883 18.4741C3.69253 18.7373 4.12775 18.7287 4.39092 18.455C4.65409 18.1813 4.64556 17.7461 4.37186 17.4829L2.39392 15.6868H5.54085V14.3118Z" fill="currentColor"/>
</g>
<defs>
<clipPath id="clip0_7876_74601">
<rect width="24" height="24" fill="white"/>
</clipPath>
</defs>
</svg>
