<svg width="24" height="24" viewBox="0 0 24 24" fill="none" xmlns="http://www.w3.org/2000/svg">
<path d="M1.02307 5.62524C1.81638 4.92494 2.85851 4.5 3.99989 4.5H17.4999C18.6413 4.5 19.6834 4.92494 20.4767 5.62524C20.2923 4.14526 19.0298 3 17.4999 3H3.99989C2.46995 3 1.2075 4.14525 1.02307 5.62524Z" fill="#111827"/>
<path d="M1.02307 8.62524C1.81638 7.92494 2.85851 7.5 3.99989 7.5H17.4999C18.6413 7.5 19.6834 7.92494 20.4767 8.62524C20.2923 7.14526 19.0298 6 17.4999 6H3.99989C2.46995 6 1.2075 7.14525 1.02307 8.62524Z" fill="#111827"/>
<path d="M1 12C1 10.3431 2.34315 9 4 9H7.75C8.16421 9 8.5 9.33579 8.5 9.75C8.5 10.9926 9.50736 12 10.75 12C11.9926 12 13 10.9926 13 9.75C13 9.33579 13.3358 9 13.75 9H17.5C19.1569 9 20.5 10.3431 20.5 12C20.5 12.0729 20.4321 12.1268 20.3606 12.1122C20.0019 12.0386 19.6305 12 19.25 12C16.2124 12 13.75 14.4624 13.75 17.5C13.75 18.4493 13.9905 19.3425 14.4139 20.1218C14.6158 20.4934 14.3686 21 13.9458 21H4C2.34315 21 1 19.6569 1 18V12Z" fill="#111827"/>
<path fill-rule="evenodd" clip-rule="evenodd" d="M18.1399 13.6154C18.1824 13.4029 18.3689 13.25 18.5856 13.25H19.6585C19.8752 13.25 20.0617 13.4029 20.1042 13.6154L20.2545 14.3665C20.5746 14.4884 20.87 14.6606 21.131 14.8733L21.8575 14.6276C22.0627 14.5581 22.2884 14.6432 22.3968 14.8309L22.9332 15.76C23.0416 15.9477 23.0024 16.1857 22.8396 16.3287L22.2638 16.8348C22.2902 16.9996 22.3039 17.1686 22.3039 17.3409C22.3039 17.5132 22.2902 17.6822 22.2638 17.8471L22.8396 18.3531C23.0024 18.4961 23.0416 18.7341 22.9332 18.9218L22.3968 19.8509C22.2884 20.0386 22.0627 20.1237 21.8575 20.0542L21.131 19.8085C20.87 20.0212 20.5746 20.1934 20.2545 20.3153L20.1042 21.0664C20.0617 21.2789 19.8752 21.4318 19.6585 21.4318H18.5856C18.3689 21.4318 18.1824 21.2789 18.1399 21.0664L17.9897 20.3153C17.6695 20.1934 17.3742 20.0212 17.1132 19.8085L16.3867 20.0543C16.1814 20.1237 15.9557 20.0386 15.8474 19.8509L15.3109 18.9218C15.2026 18.7341 15.2418 18.4961 15.4045 18.3531L15.9803 17.8471C15.9539 17.6822 15.9402 17.5132 15.9402 17.3409C15.9402 17.1687 15.9539 16.9996 15.9803 16.8348L15.4045 16.3287C15.2418 16.1857 15.2026 15.9477 15.3109 15.76L15.8474 14.8309C15.9557 14.6432 16.1814 14.5581 16.3867 14.6276L17.1132 14.8733C17.3742 14.6606 17.6695 14.4884 17.9897 14.3665L18.1399 13.6154ZM19.1221 18.7045C19.8752 18.7045 20.4857 18.094 20.4857 17.3409C20.4857 16.5878 19.8752 15.9773 19.1221 15.9773C18.369 15.9773 17.7584 16.5878 17.7584 17.3409C17.7584 18.094 18.369 18.7045 19.1221 18.7045Z" fill="#111827"/>
</svg>
