<svg width="24" height="24" viewBox="0 0 24 24" fill="none" xmlns="http://www.w3.org/2000/svg">
<path fill-rule="evenodd" clip-rule="evenodd" d="M12 1C12.4142 1 12.75 1.33579 12.75 1.75V8.18934L14.4697 6.46967C14.7626 6.17678 15.2374 6.17678 15.5303 6.46967C15.8232 6.76256 15.8232 7.23744 15.5303 7.53033L12.5303 10.5303C12.2374 10.8232 11.7626 10.8232 11.4697 10.5303L8.46967 7.53033C8.17678 7.23744 8.17678 6.76256 8.46967 6.46967C8.76256 6.17678 9.23744 6.17678 9.53033 6.46967L11.25 8.18934V1.75C11.25 1.33579 11.5858 1 12 1Z" fill="#111827"/>
<path d="M10 4H4.99989C3.46995 4 2.2075 5.14526 2.02307 6.62524C2.81638 5.92494 3.85851 5.5 4.99989 5.5H10V4Z" fill="#111827"/>
<path d="M14 5.5V4H18.4999C20.0298 4 21.2923 5.14526 21.4767 6.62524C20.6834 5.92494 19.6413 5.5 18.4999 5.5H14Z" fill="#111827"/>
<path d="M7 7H4.99989C3.46995 7 2.2075 8.14525 2.02307 9.62524C2.81638 8.92494 3.85851 8.5 4.99989 8.5H7V7Z" fill="#111827"/>
<path d="M17 8.5V7H18.4999C20.0298 7 21.2923 8.14526 21.4767 9.62524C20.6834 8.92494 19.6413 8.5 18.4999 8.5H17Z" fill="#111827"/>
<path d="M2 13C2 11.3431 3.34315 10 5 10H8.75C9.16421 10 9.5 10.3358 9.5 10.75C9.5 11.9926 10.5074 13 11.75 13C12.9926 13 14 11.9926 14 10.75C14 10.3358 14.3358 10 14.75 10H18.5C20.1569 10 21.5 11.3431 21.5 13V19C21.5 20.6569 20.1569 22 18.5 22H5C3.34315 22 2 20.6569 2 19V13Z" fill="#111827"/>
</svg>
