<svg width="24" height="24" viewBox="0 0 24 24" fill="none" xmlns="http://www.w3.org/2000/svg">
<path fill-rule="evenodd" clip-rule="evenodd" d="M3.27017 6.40647C3.99737 5.76453 4.95266 5.375 5.99892 5.375H18.3739C19.4202 5.375 20.3755 5.76453 21.1027 6.40647C20.9336 5.04982 19.7764 4 18.3739 4H5.99892C4.59648 4 3.43923 5.04982 3.27017 6.40647ZM3.27017 9.15647C3.99737 8.51452 4.95266 8.125 5.99892 8.125H18.3739C19.4202 8.125 20.3755 8.51453 21.1027 9.15647C20.9336 7.79982 19.7764 6.75 18.3739 6.75H5.99892C4.59648 6.75 3.43923 7.79982 3.27017 9.15647ZM3.24902 12.25C3.24902 10.7312 4.48024 9.5 5.99902 9.5H9.43652C9.81622 9.5 10.124 9.8078 10.124 10.1875C10.124 11.3266 11.0474 12.25 12.1865 12.25C13.3256 12.25 14.249 11.3266 14.249 10.1875C14.249 9.8078 14.5568 9.5 14.9365 9.5H18.374C19.8928 9.5 21.124 10.7312 21.124 12.25V17.75C21.124 19.2688 19.8928 20.5 18.374 20.5H5.99902C4.48024 20.5 3.24902 19.2688 3.24902 17.75V15.6882H7.27226L5.29432 17.4842C5.02062 17.7474 5.01209 18.1826 5.27526 18.4563C5.53843 18.73 5.97365 18.7386 6.24735 18.4754L9.45568 15.4962C9.59048 15.3666 9.66667 15.1877 9.66667 15.0007C9.66667 14.8136 9.59048 14.6347 9.45568 14.5051L6.24735 11.5259C5.97365 11.2627 5.53843 11.2713 5.27526 11.545C5.01209 11.8187 5.02062 12.2539 5.29432 12.5171L7.27226 14.3132H3.24902V12.25ZM3.24902 14.3132H1.1875C0.807804 14.3132 0.5 14.621 0.5 15.0007C0.5 15.3803 0.807804 15.6882 1.1875 15.6882H3.24902V14.3132Z" fill="currentColor"/>
</svg>
