<svg width="24" height="24" viewBox="0 0 24 24" fill="none" xmlns="http://www.w3.org/2000/svg">
<path d="M12.8918 3.1V5.69122C12.8918 5.76023 12.8234 5.80864 12.7563 5.79269C12.6567 5.76904 12.5528 5.75653 12.446 5.75653C11.7071 5.75653 11.1081 6.3555 11.1081 7.09437C11.1081 7.83323 11.7071 8.4322 12.446 8.4322C12.5528 8.4322 12.6567 8.41969 12.7563 8.39604C12.8234 8.38009 12.8918 8.4285 12.8918 8.49751V11.0081M12.8918 3.1C12.8918 3.04477 12.8471 3 12.7918 3H10.2002C10.1312 3 10.0828 3.06844 10.0988 3.13558C10.1224 3.2352 10.135 3.33912 10.135 3.44598C10.135 4.18485 9.536 4.78382 8.79713 4.78382C8.05826 4.78382 7.45929 4.18485 7.45929 3.44598C7.45929 3.33912 7.47182 3.2352 7.49549 3.13558C7.51144 3.06844 7.46303 3 7.39402 3H4.88372C4.82849 3 4.78372 3.04477 4.78372 3.1V5.69123C4.78372 5.76024 4.71529 5.80865 4.64814 5.7927C4.54856 5.76905 4.44466 5.75653 4.33784 5.75653C3.59897 5.75653 3 6.3555 3 7.09437C3 7.83323 3.59897 8.4322 4.33784 8.4322C4.44466 8.4322 4.54856 8.41968 4.64814 8.39603C4.71529 8.38008 4.78372 8.42849 4.78372 8.4975V11.0081C4.78372 11.0633 4.82849 11.1081 4.88372 11.1081M12.8918 3.1C12.8918 3.04477 12.9359 3 12.9911 3H15.5017C15.5707 3 15.6191 3.06844 15.6032 3.13558C15.5795 3.2352 15.567 3.33912 15.567 3.44598C15.567 4.18485 16.1659 4.78382 16.9048 4.78382C17.6437 4.78382 18.2426 4.18485 18.2426 3.44598C18.2426 3.33912 18.2301 3.2352 18.2065 3.13558C18.1905 3.06844 18.2389 3 18.3079 3H20.8992C20.9545 3 20.9992 3.04477 20.9992 3.1V5.69116C20.9992 5.76016 20.9308 5.80857 20.8637 5.79264C20.7642 5.76902 20.6604 5.75653 20.5537 5.75653C19.8148 5.75653 19.2158 6.3555 19.2158 7.09437C19.2158 7.83323 19.8148 8.4322 20.5537 8.4322C20.6604 8.4322 20.7642 8.41971 20.8637 8.3961C20.9308 8.38016 20.9992 8.42857 20.9992 8.49757V11.0081C20.9992 11.0633 20.9545 11.1081 20.8992 11.1081H18.3077C18.2386 11.1081 18.1902 11.1765 18.2062 11.2437C18.2299 11.3433 18.2424 11.4473 18.2424 11.5541C18.2424 12.293 17.6434 12.892 16.9046 12.892C16.1657 12.892 15.5667 12.293 15.5667 11.5541C15.5667 11.4473 15.5792 11.3433 15.6029 11.2437C15.6189 11.1765 15.5705 11.1081 15.5014 11.1081H12.9911C12.9359 11.1081 12.8918 11.0633 12.8918 11.0081M4.88372 11.1081H7.39403C7.46304 11.1081 7.51145 11.1765 7.49549 11.2437C7.47182 11.3433 7.45929 11.4473 7.45929 11.5541C7.45929 12.293 8.05826 12.892 8.79713 12.892C9.536 12.892 10.135 12.293 10.135 11.5541C10.135 11.4473 10.1224 11.3433 10.0988 11.2437C10.0828 11.1765 10.1312 11.1081 10.2002 11.1081H12.7918M4.88372 11.1081C4.82849 11.1081 4.78372 11.1522 4.78372 11.2074V13.7987C4.78372 13.8677 4.71529 13.9161 4.64814 13.9001C4.54856 13.8765 4.44466 13.8639 4.33784 13.8639C3.59897 13.8639 3 14.4629 3 15.2018C3 15.9407 3.59897 16.5396 4.33784 16.5396C4.44466 16.5396 4.54856 16.5271 4.64814 16.5035C4.71529 16.4875 4.78372 16.5359 4.78372 16.6049V19.1155C4.78372 19.1708 4.82849 19.2155 4.88372 19.2155H7.39403C7.46304 19.2155 7.51145 19.284 7.49549 19.3511C7.47182 19.4507 7.45929 19.5547 7.45929 19.6615C7.45929 20.4004 8.05826 20.9994 8.79713 20.9994C9.536 20.9994 10.135 20.4004 10.135 19.6615C10.135 19.5547 10.1224 19.4507 10.0988 19.3511C10.0828 19.284 10.1312 19.2155 10.2002 19.2155H12.7918C12.8471 19.2155 12.8918 19.1708 12.8918 19.1155V16.6052C12.8918 16.5362 12.8234 16.4878 12.7563 16.5037C12.6567 16.5274 12.5528 16.5399 12.446 16.5399C11.7071 16.5399 11.1081 15.9409 11.1081 15.202C11.1081 14.4632 11.7071 13.8642 12.446 13.8642C12.5528 13.8642 12.6567 13.8767 12.7563 13.9004C12.8234 13.9163 12.8918 13.8679 12.8918 13.7989V11.2074C12.8918 11.1522 12.8471 11.1081 12.7918 11.1081M12.7918 11.1081C12.8471 11.1081 12.8918 11.0633 12.8918 11.0081" stroke="currentColor" stroke-width="1.5"/>
</svg>
