<svg width="24" height="24" viewBox="0 0 24 24" fill="none" xmlns="http://www.w3.org/2000/svg">
<path d="M1.5 16.6398L6.17058 12.0171C6.96608 11.2298 8.25582 11.2298 9.05131 12.0171L13.7219 16.6398M12.3639 15.2958L13.6395 14.0332C14.435 13.2459 15.7248 13.2459 16.5202 14.0332L19.1538 16.6398M13.9231 6.5593H2.85799C2.10799 6.5593 1.5 7.16106 1.5 7.90337V18.6559C1.5 19.3982 2.10799 20 2.85799 20H17.7959C18.5459 20 19.1538 19.3982 19.1538 18.6559V11.7365M19.4808 3V6.23572M19.4808 6.23572V9.47145M19.4808 6.23572H22.75M19.4808 6.23572L16.2115 6.23572M12.3639 9.91947H12.3707V9.92619H12.3639V9.91947ZM12.7034 9.91947C12.7034 10.1051 12.5514 10.2555 12.3639 10.2555C12.1764 10.2555 12.0244 10.1051 12.0244 9.91947C12.0244 9.7339 12.1764 9.58346 12.3639 9.58346C12.5514 9.58346 12.7034 9.7339 12.7034 9.91947Z" stroke="#111827" stroke-width="1.5" stroke-linecap="round" stroke-linejoin="round"/>
</svg>
