<svg width="24" height="24" viewBox="0 0 24 24" fill="none" xmlns="http://www.w3.org/2000/svg">
<path fill-rule="evenodd" clip-rule="evenodd" d="M11.8861 15.2199C12.2798 15.2199 12.599 15.5665 12.599 15.9999L12.599 19.2669L14.2346 17.245C14.5075 16.9326 15.0298 16.8491 15.3136 17.1495C15.5975 17.4499 15.5866 17.9673 15.3137 18.2797L12.4 21.7592C12.2656 21.913 12.08 22 11.8861 22C11.6921 22 11.5066 21.913 11.3722 21.7592L8.45853 18.2797C8.18562 17.9673 8.1747 17.4499 8.45853 17.1495C8.74235 16.8491 9.26467 16.9327 9.53758 17.2451L11.1731 19.2669L11.1731 15.9999C11.1731 15.5665 11.4923 15.2199 11.8861 15.2199Z" fill="currentColor"/>
<path d="M3.75 2V2.73991C3.75 3.14855 3.41421 3.47982 3 3.47982H2.25M2.25 3.47982V3.10987C2.25 2.4969 2.75368 2 3.375 2H20.25M2.25 3.47982V12.3587M20.25 2V2.73991C20.25 3.14855 20.5858 3.47982 21 3.47982H21.75M20.25 2H20.625C21.2463 2 21.75 2.4969 21.75 3.10987V12.7287C21.75 13.3417 21.2463 13.8386 20.625 13.8386H20.25M21.75 12.3587H21C20.5858 12.3587 20.25 12.69 20.25 13.0987V13.8386M20.25 13.8386H3.75M3.75 13.8386H3.375C2.75368 13.8386 2.25 13.3417 2.25 12.7287V12.3587M3.75 13.8386V13.0987C3.75 12.69 3.41421 12.3587 3 12.3587H2.25M15 7.91928C15 9.55385 13.6569 10.8789 12 10.8789C10.3431 10.8789 9 9.55385 9 7.91928C9 6.28472 10.3431 4.95964 12 4.95964C13.6569 4.95964 15 6.28472 15 7.91928ZM18 7.91928H18.0075V7.92668H18V7.91928ZM6 7.91928H6.0075V7.92668H6V7.91928Z" stroke="currentColor" stroke-width="1.5" stroke-linecap="round" stroke-linejoin="round"/>
</svg>
