<svg width="24" height="24" viewBox="0 0 24 24" fill="none" xmlns="http://www.w3.org/2000/svg">
<path fill-rule="evenodd" clip-rule="evenodd" d="M11.8861 8.78009C12.2798 8.78009 12.599 8.4335 12.599 8.00009L12.599 4.73313L14.2346 6.75497C14.5075 7.06739 15.0298 7.15094 15.3136 6.85054C15.5975 6.55014 15.5866 6.03273 15.3137 5.72032L12.4 2.24084C12.2656 2.08697 12.08 2.00001 11.8861 2.00001C11.6921 2.00001 11.5066 2.08697 11.3722 2.24084L8.45853 5.72032C8.18562 6.03273 8.1747 6.55006 8.45853 6.85046C8.74235 7.15086 9.26467 7.06731 9.53758 6.75489L11.1731 4.73313L11.1731 8.00009C11.1731 8.4335 11.4923 8.78009 11.8861 8.78009Z" fill="currentColor"/>
<path d="M3.75 22V21.2601C3.75 20.8514 3.41421 20.5202 3 20.5202H2.25M2.25 20.5202V20.8901C2.25 21.5031 2.75368 22 3.375 22H20.25M2.25 20.5202V11.6413M20.25 22V21.2601C20.25 20.8514 20.5858 20.5202 21 20.5202H21.75M20.25 22H20.625C21.2463 22 21.75 21.5031 21.75 20.8901V11.2713C21.75 10.6583 21.2463 10.1614 20.625 10.1614H20.25M21.75 11.6413H21C20.5858 11.6413 20.25 11.31 20.25 10.9013V10.1614M20.25 10.1614H3.75M3.75 10.1614H3.375C2.75368 10.1614 2.25 10.6583 2.25 11.2713V11.6413M3.75 10.1614V10.9013C3.75 11.31 3.41421 11.6413 3 11.6413H2.25M15 16.0807C15 14.4462 13.6569 13.1211 12 13.1211C10.3431 13.1211 9 14.4462 9 16.0807C9 17.7153 10.3431 19.0404 12 19.0404C13.6569 19.0404 15 17.7153 15 16.0807ZM18 16.0807H18.0075V16.0733H18V16.0807ZM6 16.0807H6.0075V16.0733H6V16.0807Z" stroke="currentColor" stroke-width="1.5" stroke-linecap="round" stroke-linejoin="round"/>
</svg>
