<svg width="24" height="24" viewBox="0 0 24 24" fill="none" xmlns="http://www.w3.org/2000/svg">
<path fill-rule="evenodd" clip-rule="evenodd" d="M11.5 7.11429C11.926 7.11429 12.2714 7.45967 12.2714 7.88571V16.1143C12.2714 16.5403 11.926 16.8857 11.5 16.8857C11.074 16.8857 10.7286 16.5403 10.7286 16.1143V7.88571C10.7286 7.45967 11.074 7.11429 11.5 7.11429Z" fill="#111827"/>
<path fill-rule="evenodd" clip-rule="evenodd" d="M7.38571 10.2C7.81176 10.2 8.15714 10.5454 8.15714 10.9714V16.1143C8.15714 16.5403 7.81176 16.8857 7.38571 16.8857C6.95967 16.8857 6.61429 16.5403 6.61429 16.1143V10.9714C6.61429 10.5454 6.95967 10.2 7.38571 10.2Z" fill="#111827"/>
<path fill-rule="evenodd" clip-rule="evenodd" d="M15.6143 13.2857C16.0403 13.2857 16.3857 13.6311 16.3857 14.0571V16.1143C16.3857 16.5403 16.0403 16.8857 15.6143 16.8857C15.1882 16.8857 14.8429 16.5403 14.8429 16.1143V14.0571C14.8429 13.6311 15.1882 13.2857 15.6143 13.2857Z" fill="#111827"/>
<path fill-rule="evenodd" clip-rule="evenodd" d="M2.5 4.8C2.5 3.80589 3.30589 3 4.3 3H13.0429C13.4689 3 13.8143 3.34538 13.8143 3.77143C13.8143 4.19748 13.4689 4.54286 13.0429 4.54286H4.3C4.15798 4.54286 4.04286 4.65798 4.04286 4.8V19.2C4.04286 19.342 4.15798 19.4571 4.3 19.4571H18.7C18.842 19.4571 18.9571 19.342 18.9571 19.2V10.7153C18.9571 10.2892 19.3025 9.94386 19.7286 9.94386C20.1546 9.94386 20.5 10.2892 20.5 10.7153V19.2C20.5 20.1941 19.6941 21 18.7 21H4.3C3.30589 21 2.5 20.1941 2.5 19.2V4.8Z" fill="#111827"/>
<path d="M21.3893 4.96254C21.7151 4.65767 21.7151 4.14078 21.3893 3.83592L21.298 3.75053C21.0014 3.47304 20.5405 3.47304 20.2439 3.75053L17.1675 6.62895L15.8188 5.36704C15.5222 5.08954 15.0612 5.08954 14.7647 5.36704L14.6734 5.45243C14.3476 5.75729 14.3476 6.27418 14.6734 6.57904L15.9471 7.77078L15.945 7.77271L16.9897 8.75016C17.0886 8.84266 17.2422 8.84266 17.3411 8.75017L21.3893 4.96254Z" fill="#111827"/>
</svg>