<svg width="24" height="24" viewBox="0 0 24 24" fill="none" xmlns="http://www.w3.org/2000/svg">
<path d="M15.5849 15.7736C15.5849 14.8358 14.8246 14.0755 13.8868 14.0755H11.0566C11.0566 15.3259 10.0429 16.3396 8.79245 16.3396C7.542 16.3396 6.5283 15.3259 6.5283 14.0755H3.69811C2.76027 14.0755 2 14.8358 2 15.7736M15.5849 15.7736V20.3019C15.5849 21.2397 14.8246 22 13.8868 22H3.69811C2.76027 22 2 21.2397 2 20.3019V15.7736M15.5849 15.7736V13.5094M2 15.7736V13.5094M15.5849 13.5094C15.5849 12.5716 14.8246 11.8113 13.8868 11.8113H3.69811C2.76027 11.8113 2 12.5716 2 13.5094M15.5849 13.5094V11.2453C15.5849 10.3075 14.8246 9.54718 13.8868 9.54718H3.69811C2.76027 9.54718 2 10.3075 2 11.2453V13.5094" stroke="#111827" stroke-width="1.25" stroke-linecap="round" stroke-linejoin="round"/>
<path d="M14.2831 6.92025C16.4714 6.92025 18.2454 8.69421 18.2454 10.8825M14.2831 3.52399C18.3471 3.52399 21.6416 6.8185 21.6416 10.8825" stroke="#111827" stroke-width="1.25" stroke-linecap="round" stroke-linejoin="round"/>
</svg>
