<svg width="24" height="24" viewBox="0 0 24 24" fill="none" xmlns="http://www.w3.org/2000/svg">
<path d="M19.0575 8.5312C19.7911 8.61361 20.3247 9.18806 20.3804 9.92414C20.4441 10.766 20.4817 11.9127 20.3425 12.9078C20.2965 13.2364 20.1367 13.5343 19.8887 13.7547C19.3125 14.2669 18.0458 15.2623 16.0268 16.1821C15.9553 16.7956 15.8942 17.2775 15.8478 17.6279C15.7927 18.0433 15.4634 18.3634 15.0463 18.4034C14.3311 18.4719 13.1655 18.5625 12 18.5625C10.8345 18.5625 9.66891 18.4719 8.95373 18.4034C8.53664 18.3634 8.2073 18.0433 8.15222 17.6279C8.10577 17.2775 8.04469 16.7956 7.97316 16.1821C5.9542 15.2623 4.68756 14.2669 4.11129 13.7547C3.86332 13.5343 3.70344 13.2364 3.65749 12.9078C3.51833 11.9127 3.55596 10.7659 3.61964 9.92409C3.67532 9.18806 4.20892 8.61361 4.94247 8.5312C6.10406 8.4007 8.25595 8.25 12 8.25C15.744 8.25 17.8959 8.4007 19.0575 8.5312Z" stroke="currentColor" stroke-width="1.5" stroke-linecap="round" stroke-linejoin="round"/>
<path d="M6.84745 8.376C6.84506 8.04811 6.84375 7.6942 6.84375 7.3125C6.84375 5.39863 6.87712 4.18404 6.91134 3.44162C6.94237 2.76878 7.31602 2.19559 7.98877 2.16245C8.06977 2.15845 8.15672 2.15625 8.25 2.15625C8.34328 2.15625 8.43023 2.15845 8.51123 2.16245C9.18398 2.19559 9.55763 2.76878 9.58866 3.44162C9.62288 4.18404 9.65625 5.39863 9.65625 7.3125C9.65625 7.65422 9.65517 7.97358 9.65325 8.27203" stroke="currentColor" stroke-width="1.5" stroke-linecap="round" stroke-linejoin="round"/>
<path d="M14.3468 8.27203C14.3448 7.97358 14.3438 7.65422 14.3438 7.3125C14.3438 5.39863 14.3771 4.18404 14.4113 3.44162C14.4424 2.76878 14.816 2.19559 15.4888 2.16245C15.5698 2.15845 15.6567 2.15625 15.75 2.15625C15.8433 2.15625 15.9302 2.15845 16.0112 2.16245C16.684 2.19559 17.0576 2.76878 17.0887 3.44162C17.1229 4.18404 17.1562 5.39863 17.1562 7.3125C17.1562 7.6942 17.1549 8.04811 17.1525 8.376" stroke="currentColor" stroke-width="1.5" stroke-linecap="round" stroke-linejoin="round"/>
<path d="M13.6984 18.5085C13.608 19.6201 13.5049 20.6399 13.4458 21.1993C13.4158 21.4831 13.2467 21.7236 12.9656 21.7734C12.749 21.8118 12.4369 21.844 11.9996 21.844C11.5623 21.844 11.2503 21.8118 11.0336 21.7735C10.7525 21.7236 10.5834 21.4831 10.5534 21.1992C10.4943 20.6399 10.3911 19.62 10.3008 18.5085" stroke="currentColor" stroke-width="1.5" stroke-linecap="round" stroke-linejoin="round"/>
</svg>
