<svg width="24" height="24" viewBox="0 0 24 24" fill="none" xmlns="http://www.w3.org/2000/svg">
<path d="M13.4122 8.31197C13.4995 6.5782 13.8852 5.18622 14.2925 4.1675C14.8317 2.81883 16.2261 2.15625 17.6785 2.15625C18.9862 2.15625 20.2372 2.75172 20.7642 3.94857C21.2079 4.95632 21.6639 6.37491 21.8274 8.16825C21.9875 9.9248 20.9564 11.5613 19.3262 12.045C19.0849 12.1167 18.9101 12.3423 18.94 12.5924L19.7493 19.3747C19.8865 20.525 19.1684 21.648 18.0208 21.8057C17.8484 21.8294 17.6914 21.8438 17.5641 21.8438C17.4369 21.8438 17.2799 21.8294 17.1075 21.8057C15.9598 21.648 15.2418 20.525 15.3791 19.3747L16.1948 12.5382C16.2238 12.2953 16.0594 12.0742 15.8274 11.9966C14.3083 11.4885 13.3286 9.97327 13.4122 8.31197Z" stroke="#111827" stroke-width="1.5" stroke-linejoin="round"/>
<path d="M10.0995 3.26169C10.3153 4.53574 10.617 6.76153 10.5928 9.13861C10.5803 10.3653 9.76097 11.4647 8.4727 11.7535C8.20683 11.8131 7.923 11.8667 7.62666 11.9086L8.49098 19.3993C8.62247 20.539 7.91634 21.657 6.77948 21.811C6.62747 21.8316 6.48905 21.8439 6.37519 21.8439C6.26137 21.8439 6.12295 21.8316 5.97094 21.811C4.83406 21.657 4.12793 20.539 4.25944 19.3993L5.12376 11.9085C4.82746 11.8667 4.54368 11.8131 4.27784 11.7535C2.98951 11.4647 2.17012 10.3652 2.15762 9.13847C2.13341 6.76167 2.43462 4.53617 2.65007 3.26208C2.75988 2.61271 3.32769 2.15625 3.98628 2.15625H8.76347C9.42187 2.15625 9.98962 2.61251 10.0995 3.26169Z" stroke="#111827" stroke-width="1.5" stroke-linecap="round" stroke-linejoin="round"/>
<path d="M5.20312 2.15625L4.96875 7.3125" stroke="#111827" stroke-width="1.5" stroke-linecap="round" stroke-linejoin="round"/>
<path d="M7.54688 2.15625L7.78125 7.3125" stroke="#111827" stroke-width="1.5" stroke-linecap="round" stroke-linejoin="round"/>
</svg>
