<svg width="24" height="24" viewBox="0 0 24 24" fill="none" xmlns="http://www.w3.org/2000/svg">
<path d="M12.0002 9.6875C8.84644 9.6875 6.1842 12.3822 5.34105 15.8338C4.98077 17.3087 5.53402 18.8685 6.86236 19.6039C7.96751 20.2156 9.63357 20.7875 12.0002 20.7875C14.3669 20.7875 16.0329 20.2156 17.1381 19.6038C18.4664 18.8685 19.0196 17.3087 18.6593 15.8338C17.8162 12.3822 15.154 9.6875 12.0002 9.6875Z" stroke="currentColor" stroke-width="1.5" stroke-linejoin="round"/>
<path d="M1.8252 9.43053C1.8252 10.7077 2.65347 12 3.6752 12C4.69692 12 5.5252 10.7077 5.5252 9.43053C5.5252 8.15339 4.69692 7.375 3.6752 7.375C2.65347 7.375 1.8252 8.15339 1.8252 9.43053Z" stroke="currentColor" stroke-width="1.5" stroke-linejoin="round"/>
<path d="M22.1751 9.43053C22.1751 10.7077 21.3468 12 20.3251 12C19.3034 12 18.4751 10.7077 18.4751 9.43053C18.4751 8.15339 19.3034 7.375 20.3251 7.375C21.3468 7.375 22.1751 8.15339 22.1751 9.43053Z" stroke="currentColor" stroke-width="1.5" stroke-linejoin="round"/>
<path d="M6.9126 5.26805C6.9126 6.54522 7.74089 7.83749 8.7626 7.83749C9.78431 7.83749 10.6126 6.54522 10.6126 5.26805C10.6126 3.99089 9.78431 3.21249 8.7626 3.21249C7.74089 3.21249 6.9126 3.99089 6.9126 5.26805Z" stroke="currentColor" stroke-width="1.5" stroke-linejoin="round"/>
<path d="M17.0877 5.26805C17.0877 6.54522 16.2594 7.83749 15.2377 7.83749C14.216 7.83749 13.3877 6.54522 13.3877 5.26805C13.3877 3.99089 14.216 3.21249 15.2377 3.21249C16.2594 3.21249 17.0877 3.99089 17.0877 5.26805Z" stroke="currentColor" stroke-width="1.5" stroke-linejoin="round"/>
</svg>
