<svg width="24" height="24" viewBox="0 0 24 24" fill="none" xmlns="http://www.w3.org/2000/svg">
<path d="M14.4253 9.25V4.75C14.4253 2.67893 12.7464 1 10.6753 1C8.60422 1 6.92529 2.67893 6.92529 4.75V9.25M10.6753 20.5H2.92492C2.25701 20.5 1.73619 19.9215 1.80611 19.2572L3.06926 7.25723C3.12953 6.68466 3.61235 6.25 4.18808 6.25H17.1625C17.7382 6.25 18.221 6.68466 18.2813 7.25723L18.7998 11M7.30029 9.25C7.30029 9.45711 7.1324 9.625 6.92529 9.625C6.71818 9.625 6.55029 9.45711 6.55029 9.25C6.55029 9.04289 6.71818 8.875 6.92529 8.875C7.1324 8.875 7.30029 9.04289 7.30029 9.25ZM14.8003 9.25C14.8003 9.45711 14.6324 9.625 14.4253 9.625C14.2182 9.625 14.0503 9.45711 14.0503 9.25C14.0503 9.04289 14.2182 8.875 14.4253 8.875C14.6324 8.875 14.8003 9.04289 14.8003 9.25Z" stroke="#111827" stroke-width="1.5" stroke-linecap="round" stroke-linejoin="round"/>
<path fill-rule="evenodd" clip-rule="evenodd" d="M16.3319 13.4466C16.3838 13.1869 16.6118 13 16.8767 13H18.188C18.4528 13 18.6808 13.1869 18.7328 13.4466L18.9164 14.3646C19.3076 14.5137 19.6687 14.7241 19.9876 14.9841L20.8756 14.6837C21.1264 14.5988 21.4023 14.7028 21.5347 14.9322L22.1904 16.0678C22.3228 16.2972 22.2749 16.5881 22.076 16.7629L21.3723 17.3814C21.4045 17.5828 21.4212 17.7895 21.4212 18C21.4212 18.2105 21.4045 18.4172 21.3723 18.6186L22.076 19.2371C22.2749 19.4119 22.3228 19.7028 22.1904 19.9322L21.5347 21.0678C21.4023 21.2972 21.1264 21.4012 20.8756 21.3163L19.9877 21.0159C19.6687 21.2759 19.3077 21.4863 18.9164 21.6354L18.7328 22.5534C18.6808 22.8131 18.4528 23 18.188 23H16.8767C16.6118 23 16.3838 22.8131 16.3319 22.5534L16.1483 21.6354C15.757 21.4863 15.396 21.2759 15.077 21.0159L14.1891 21.3163C13.9382 21.4012 13.6623 21.2972 13.5299 21.0678L12.8743 19.9322C12.7418 19.7028 12.7897 19.4119 12.9886 19.2371L13.6924 18.6186C13.6602 18.4172 13.6434 18.2105 13.6434 18C13.6434 17.7895 13.6602 17.5828 13.6924 17.3814L12.9886 16.7629C12.7897 16.5881 12.7418 16.2972 12.8743 16.0678L13.5299 14.9322C13.6623 14.7028 13.9382 14.5988 14.1891 14.6837L15.077 14.9841C15.396 14.7241 15.757 14.5137 16.1483 14.3646L16.3319 13.4466ZM17.5323 19.6667C18.4528 19.6667 19.199 18.9205 19.199 18C19.199 17.0795 18.4528 16.3333 17.5323 16.3333C16.6119 16.3333 15.8657 17.0795 15.8657 18C15.8657 18.9205 16.6119 19.6667 17.5323 19.6667Z" fill="#111827"/>
</svg>
