<svg width="24" height="24" viewBox="0 0 24 24" fill="none" xmlns="http://www.w3.org/2000/svg">
<path d="M12 2V10.25M12 10.25L9 7.25M12 10.25L15 7.25" stroke="#111827" stroke-width="1.5" stroke-linecap="round" stroke-linejoin="round"/>
<path fill-rule="evenodd" clip-rule="evenodd" d="M10 4H5.25C3.59315 4 2.25 5.34315 2.25 7V10V13V19C2.25 20.6569 3.59315 22 5.25 22H18.75C20.4069 22 21.75 20.6569 21.75 19V13V10V7C21.75 5.34315 20.4069 4 18.75 4H14V5.5H18.75C19.5784 5.5 20.25 6.17157 20.25 7V7.40135C19.8087 7.14609 19.2964 7 18.75 7H17V8.5H18.75C19.5784 8.5 20.25 9.17157 20.25 10V10.4013C19.8087 10.1461 19.2964 10 18.75 10H15C14.5858 10 14.25 10.3358 14.25 10.75C14.25 11.9926 13.2426 13 12 13C10.7574 13 9.75 11.9926 9.75 10.75C9.75 10.3358 9.41421 10 9 10H5.25C4.70357 10 4.19126 10.1461 3.75 10.4013V10C3.75 9.17157 4.42157 8.5 5.25 8.5H7V7H5.25C4.70357 7 4.19126 7.14609 3.75 7.40135V7C3.75 6.17157 4.42157 5.5 5.25 5.5H10V4ZM18.75 11.5C19.5784 11.5 20.25 12.1716 20.25 13V19C20.25 19.8284 19.5784 20.5 18.75 20.5H5.25C4.42157 20.5 3.75 19.8284 3.75 19V13C3.75 12.1716 4.42157 11.5 5.25 11.5H8.32501C8.67247 13.2117 10.1858 14.5 12 14.5C13.8142 14.5 15.3275 13.2117 15.675 11.5H18.75Z" fill="#111827"/>
</svg>
