<svg width="24" height="24" viewBox="0 0 24 24" fill="none" xmlns="http://www.w3.org/2000/svg">
<g clip-path="url(#clip0_7876_74603)">
<path d="M23.0448 11.75C23.0448 10.5827 22.0985 9.63636 20.9312 9.63636H17.4085C17.4085 11.1928 16.1467 12.4545 14.5903 12.4545C13.0338 12.4545 11.7721 11.1928 11.7721 9.63636H8.24938C7.08205 9.63636 6.13574 10.5827 6.13574 11.75M23.0448 11.75V17.3864C23.0448 18.5537 22.0985 19.5 20.9312 19.5H8.24938C7.08205 19.5 6.13574 18.5537 6.13574 17.3864V16.2121M23.0448 11.75V8.93182M6.13574 11.75V8.93182M6.13574 11.75V12.9242M23.0448 8.93182C23.0448 7.76449 22.0985 6.81818 20.9312 6.81818H8.24938C7.08205 6.81818 6.13574 7.76449 6.13574 8.93182M23.0448 8.93182V6.11364C23.0448 4.94631 22.0985 4 20.9312 4H8.24938C7.08205 4 6.13574 4.94631 6.13574 6.11364V8.93182" stroke="#111827" stroke-width="1.5" stroke-linecap="round" stroke-linejoin="round"/>
<path fill-rule="evenodd" clip-rule="evenodd" d="M10.333 14.5676C10.333 14.9567 10.0176 15.2722 9.62846 15.2722H2.45345L4.48043 17.1128C4.76091 17.3825 4.76965 17.8285 4.49996 18.109C4.23026 18.3895 3.78426 18.3982 3.50377 18.1285L0.215893 15.0755C0.0777473 14.9426 -0.000325203 14.7593 -0.000325203 14.5676C-0.000325203 14.376 0.0777473 14.1926 0.215893 14.0598L3.50377 11.0067C3.78426 10.737 4.23026 10.7458 4.49996 11.0263C4.76965 11.3067 4.76091 11.7528 4.48043 12.0224L2.45345 13.8631H9.62846C10.0176 13.8631 10.333 14.1785 10.333 14.5676Z" fill="#111827"/>
</g>
<defs>
<clipPath id="clip0_7876_74603">
<rect width="24" height="24" fill="white"/>
</clipPath>
</defs>
</svg>
