<svg width="24" height="24" viewBox="0 0 24 24" fill="none" xmlns="http://www.w3.org/2000/svg">
<path d="M2 11.25V17.25C2 18.4926 3.00736 19.5 4.25 19.5H14M2 11.25C2 10.0074 3.00736 9 4.25 9H8C8 10.6569 9.34315 12 11 12C12.6569 12 14 10.6569 14 9H17.75C18.9926 9 20 9.75736 20 11V8.25M2 11.25V8.25M20 8.25C20 7.00736 18.9926 6 17.75 6H4.25C3.00736 6 2 7.00736 2 8.25M20 8.25V5.25C20 4.00736 18.9926 3 17.75 3H4.25C3.00736 3 2 4.00736 2 5.25V8.25" stroke="#111827" stroke-width="1.5" stroke-linecap="round" stroke-linejoin="round"/>
<path fill-rule="evenodd" clip-rule="evenodd" d="M17.8899 12.3654C17.9324 12.1529 18.1189 12 18.3356 12H19.4085C19.6252 12 19.8117 12.1529 19.8542 12.3654L20.0045 13.1165C20.3246 13.2384 20.62 13.4106 20.881 13.6233L21.6075 13.3776C21.8127 13.3081 22.0384 13.3932 22.1468 13.5809L22.6832 14.51C22.7916 14.6977 22.7524 14.9357 22.5896 15.0787L22.0138 15.5848C22.0402 15.7496 22.0539 15.9186 22.0539 16.0909C22.0539 16.2632 22.0402 16.4322 22.0138 16.5971L22.5896 17.1031C22.7524 17.2461 22.7916 17.4841 22.6832 17.6718L22.1468 18.6009C22.0384 18.7886 21.8127 18.8737 21.6075 18.8042L20.881 18.5585C20.62 18.7712 20.3246 18.9434 20.0045 19.0653L19.8542 19.8164C19.8117 20.0289 19.6252 20.1818 19.4085 20.1818H18.3356C18.1189 20.1818 17.9324 20.0289 17.8899 19.8164L17.7397 19.0653C17.4195 18.9434 17.1242 18.7712 16.8632 18.5585L16.1367 18.8043C15.9314 18.8737 15.7057 18.7886 15.5974 18.6009L15.0609 17.6718C14.9526 17.4841 14.9918 17.2461 15.1545 17.1031L15.7303 16.5971C15.7039 16.4322 15.6902 16.2632 15.6902 16.0909C15.6902 15.9187 15.7039 15.7496 15.7303 15.5848L15.1545 15.0787C14.9918 14.9357 14.9526 14.6977 15.0609 14.51L15.5974 13.5809C15.7057 13.3932 15.9314 13.3081 16.1367 13.3776L16.8632 13.6233C17.1242 13.4106 17.4195 13.2384 17.7397 13.1165L17.8899 12.3654ZM18.8721 17.4545C19.6252 17.4545 20.2357 16.844 20.2357 16.0909C20.2357 15.3378 19.6252 14.7273 18.8721 14.7273C18.119 14.7273 17.5084 15.3378 17.5084 16.0909C17.5084 16.844 18.119 17.4545 18.8721 17.4545Z" fill="#111827"/>
</svg>
