<svg width="24" height="24" viewBox="0 0 24 24" fill="none" xmlns="http://www.w3.org/2000/svg">
<path d="M21.1669 11.75C21.1669 10.5827 20.2206 9.63636 19.0533 9.63636H15.5305C15.5305 11.1928 14.2688 12.4545 12.7124 12.4545C11.1559 12.4545 9.89418 11.1928 9.89418 9.63636H6.37145C5.20412 9.63636 4.25781 10.5827 4.25781 11.75M21.1669 11.75V17.3864C21.1669 18.5537 20.2206 19.5 19.0533 19.5H6.37145C5.20412 19.5 4.25781 18.5537 4.25781 17.3864V16.2121M21.1669 11.75V8.93182M4.25781 11.75V8.93182M4.25781 11.75V12.9242M21.1669 8.93182C21.1669 7.76449 20.2206 6.81818 19.0533 6.81818H6.37145C5.20412 6.81818 4.25781 7.76449 4.25781 8.93182M21.1669 8.93182V6.11364C21.1669 4.94631 20.2206 4 19.0533 4H6.37145C5.20412 4 4.25781 4.94631 4.25781 6.11364V8.93182" stroke="#111827" stroke-width="1.5" stroke-linecap="round" stroke-linejoin="round"/>
<path fill-rule="evenodd" clip-rule="evenodd" d="M0.5 14.5682C0.5 14.1791 0.815436 13.8636 1.20455 13.8636H8.37956L6.35258 12.023C6.0721 11.7533 6.06335 11.3073 6.33305 11.0268C6.60275 10.7463 7.04875 10.7376 7.32924 11.0073L10.6171 14.0603C10.7553 14.1932 10.8333 14.3765 10.8333 14.5682C10.8333 14.7598 10.7553 14.9432 10.6171 15.076L7.32924 18.1291C7.04875 18.3988 6.60275 18.39 6.33305 18.1095C6.06335 17.8291 6.0721 17.3831 6.35258 17.1134L8.37956 15.2727H1.20455C0.815436 15.2727 0.5 14.9573 0.5 14.5682Z" fill="#111827"/>
</svg>
